<?xml version="1.0" encoding="utf-8"?>
<!-- Generator: Adobe Illustrator 26.0.2, SVG Export Plug-In . SVG Version: 6.00 Build 0)  -->
<svg version="1.1" id="Layer_1" xmlns="http://www.w3.org/2000/svg" xmlns:xlink="http://www.w3.org/1999/xlink" x="0px" y="0px"
	 viewBox="0 0 1000 800" style="enable-background:new 0 0 1000 800;" xml:space="preserve">
<path style="fill:#BF311A;" d="M705.0605,194.9391c-54.7734-54.7734-127.5986-84.939-205.0605-84.939
	c-77.4529,0-150.27,30.1588-205.0417,84.9202c-0.0063,0.0063-0.013,0.012-0.0193,0.0183c-0.0062,0.0062-0.0117,0.0126-0.0179,0.0188
	C240.1591,249.7294,210,322.5468,210,400.0002c0,77.4619,30.1655,150.2871,84.939,205.0605
	c54.7739,54.7744,127.5991,84.9395,205.061,84.9395s150.2871-30.165,205.0605-84.9395C759.835,550.2873,790,477.4621,790,400.0002
	S759.835,249.7131,705.0605,194.9391z M662.6348,237.3654C706.0762,280.8068,730,338.5651,730,400.0002
	c0,51.319-16.7052,100.0647-47.524,140.0502L359.9507,217.5237c39.9855-30.8182,88.731-47.5235,140.0493-47.5235
	C561.4355,170.0002,619.1934,193.9245,662.6348,237.3654z M337.3652,562.6349C293.9243,519.1935,270,461.4357,270,400.0002
	c0-51.3185,16.7054-100.0643,47.5239-140.0499l322.5262,322.5259c-39.9855,30.8188-88.7311,47.524-140.0502,47.524
	C438.5649,630.0002,380.8066,606.0764,337.3652,562.6349z"/>
</svg>
