<?xml version="1.0" encoding="utf-8"?>
<!-- Generator: Adobe Illustrator 26.0.2, SVG Export Plug-In . SVG Version: 6.00 Build 0)  -->
<svg version="1.1" id="Layer_1" xmlns="http://www.w3.org/2000/svg" xmlns:xlink="http://www.w3.org/1999/xlink" x="0px" y="0px"
	 viewBox="0 0 1000 800" style="enable-background:new 0 0 1000 800;" xml:space="preserve">
<g id="rectangle">
	<path style="fill:#FFFFFF;" d="M792.4,60c31.7333,0,47.6,15.8666,47.6,47.6v584.8c0,31.7333-15.8666,47.6-47.6,47.6H207.6
		c-31.7333,0-47.6-15.8666-47.6-47.6V107.6c0-31.7333,15.8667-47.6,47.6-47.6H792.4z"/>
	<path style="fill:none;stroke:#000000;stroke-width:1.36;stroke-linecap:round;stroke-miterlimit:10;" d="M792.4,60
		c31.7333,0,47.6,15.8666,47.6,47.6v584.8c0,31.7333-15.8666,47.6-47.6,47.6H207.6c-31.7333,0-47.6-15.8666-47.6-47.6V107.6
		c0-31.7333,15.8667-47.6,47.6-47.6H792.4z"/>
	<path style="fill:none;stroke:#000000;stroke-width:22.7664;stroke-linecap:round;stroke-miterlimit:10;" d="M790.904,83.8
		c16.864,0,25.296,8.432,25.296,25.296v581.808c0,16.864-8.432,25.296-25.296,25.296H209.096c-16.864,0-25.296-8.432-25.296-25.296
		V109.096c0-16.864,8.432-25.296,25.296-25.296H790.904z"/>
</g>
</svg>
