<?xml version="1.0" encoding="utf-8"?>
<!-- Generator: Adobe Illustrator 26.0.2, SVG Export Plug-In . SVG Version: 6.00 Build 0)  -->
<svg version="1.1" id="Layer_1" xmlns="http://www.w3.org/2000/svg" xmlns:xlink="http://www.w3.org/1999/xlink" x="0px" y="0px"
	 viewBox="0 0 1000 800" style="enable-background:new 0 0 1000 800;" xml:space="preserve">
<path style="fill:#FFFFFF;" d="M315.8618,435.4531c-0.1797,15.8535-6.3701,29.0312-18.5669,39.5381
	c-12.2012,10.5107-29.2529,15.7617-51.1587,15.7617c-29.2114,0-52.9873-12.2891-71.3286-36.8672l26.7148-18.166
	c12.1094,15.8535,27.3364,23.9561,45.6821,24.3105c11.3955,0.1797,20.3452-2.0449,26.8481-6.6787
	c6.4995-4.6289,9.8389-10.7734,10.0181-18.4326c0.5347-6.4121-2.0493-11.6631-7.7471-15.7617
	c-5.7021-4.0947-17.2769-8.1904-34.729-12.2891c-24.4023-5.6982-40.7402-12.7314-49.022-21.1045
	c-8.2817-8.3696-12.5142-18.166-12.6895-29.3867c-0.3589-12.998,5.2095-24.5312,16.6968-34.5952
	c11.4873-10.0601,26.4019-15.0942,44.7471-15.0942c29.0273,1.4277,51.2925,12.7358,66.7871,33.9277l-25.3789,16.8306
	c-9.7969-11.3955-23.6011-17.8071-41.4082-19.2349c-9.6172,0-16.9219,1.7827-21.9058,5.3433
	c-4.9883,3.5645-7.3052,7.5718-6.9458,12.0215c-0.1797,4.9883,2.4917,9.083,8.0142,12.2891
	c5.5186,3.2056,13.4453,5.7896,23.7764,7.7471c24.9321,4.6333,43.0522,12.1553,54.3643,22.5742
	C309.9385,408.6045,315.6821,421.0273,315.8618,435.4531z"/>
<path style="fill:#FFFFFF;" d="M559.9833,334.1325l-51.3394,4.7544l13.5982,146.8375l-31.1232,2.8822l-13.5982-146.8375
	l-51.3399,4.7545l-2.9069-31.3891l133.8025-12.3911L559.9833,334.1325z"/>
<path style="fill:#FFFFFF;" d="M732.999,397.251c0,27.9629-6.7246,50.5371-20.1699,67.7217
	c-13.4492,17.1895-31.3896,25.7803-53.8301,25.7803c-24.5781,0-43.8125-9.8848-57.7041-29.6533
	c-12.1133-17.0977-18.166-38.2021-18.166-63.3145c0-28.4932,6.7666-50.9795,20.3027-67.4551
	c13.5332-16.4712,32.0586-24.7109,55.5674-24.7109c22.0811,0,39.9385,8.415,53.5625,25.2456
	C726.1865,347.6948,732.999,369.8267,732.999,397.251z M701.208,397.7852c0-18.8755-3.6982-33.6606-11.0859-44.3467
	c-7.3926-10.686-17.7656-16.0288-31.123-16.0288c-13.5371,0-24.1357,5.3428-31.791,16.0288
	c-7.6592,10.686-11.4873,25.4712-11.4873,44.3467c0,19.0596,3.8281,33.9736,11.4873,44.7471
	c7.6553,10.7783,18.2539,16.1631,31.791,16.1631c15.3145,0,26.5352-6.6787,33.6602-20.0361
	C698.3574,428.1523,701.208,414.5273,701.208,397.7852z"/>
<path style="fill:#FFFFFF;" d="M816.3791,419.3072l-50.4755-9.1156l-12.4865,69.1413l-31.5473-5.6972l31.8098-176.14l80.9714,14.623
	c11.5677,2.0891,21.2004,6.3651,28.9032,12.8212c16.1508,13.7751,22.3784,30.9165,18.6751,51.4226
	c-3.9881,22.0832-15.8819,36.3171-35.6719,42.6936C837.3041,421.1858,827.2443,421.2694,816.3791,419.3072z M850.6821,370.6653
	c1.2344-6.8357-0.0644-12.6776-3.8921-17.5343c-3.8314-4.8529-9.6003-7.9777-17.3105-9.3701l-49.9498-9.0207l-7.9287,43.9036
	l49.9498,9.0206c7.7103,1.3924,14.1995,0.5285,19.4708-2.5917C846.2899,381.9521,849.5107,377.1512,850.6821,370.6653z"/>
</svg>
