<?xml version="1.0" encoding="utf-8"?>
<!-- Generator: Adobe Illustrator 26.0.2, SVG Export Plug-In . SVG Version: 6.00 Build 0)  -->
<svg version="1.1" id="Layer_1" xmlns="http://www.w3.org/2000/svg" xmlns:xlink="http://www.w3.org/1999/xlink" x="0px" y="0px"
	 viewBox="0 0 1000 800" style="enable-background:new 0 0 1000 800;" xml:space="preserve">
<g id="warning">
	<path style="fill:#FFD24F;" d="M828.8046,375.2513c16.4992,16.4991,16.4992,32.9983,0,49.4975L524.7487,728.8046
		c-16.4991,16.4992-32.9983,16.4992-49.4975,0L171.1953,424.7487c-16.4992-16.4991-16.4992-32.9983,0-49.4975L475.2513,71.1953
		c16.4991-16.4991,32.9983-16.4991,49.4974,0.0001L828.8046,375.2513z"/>
	<path style="fill:none;stroke:#000000;stroke-linecap:round;stroke-miterlimit:10;" d="M828.8046,375.2513
		c16.4992,16.4991,16.4992,32.9983,0,49.4975L524.7487,728.8046c-16.4991,16.4992-32.9983,16.4992-49.4975,0L171.1953,424.7487
		c-16.4992-16.4991-16.4992-32.9983,0-49.4975L475.2513,71.1953c16.4991-16.4991,32.9983-16.4991,49.4974,0.0001L828.8046,375.2513z
		"/>
	<path style="fill:none;stroke:#000000;stroke-width:16.74;stroke-linecap:round;stroke-miterlimit:10;" d="M815.6525,386.8478
		c8.7681,8.7682,8.7681,17.5363,0,26.3044L513.1522,715.6525c-8.7681,8.7681-17.5362,8.7681-26.3044,0L184.3475,413.1522
		c-8.7681-8.7681-8.7681-17.5363,0-26.3044L486.8478,84.3475c8.7681-8.7681,17.5363-8.7681,26.3044,0L815.6525,386.8478z"/>
</g>
</svg>
