<?xml version="1.0" encoding="utf-8"?>
<!-- Generator: Adobe Illustrator 26.0.1, SVG Export Plug-In . SVG Version: 6.00 Build 0)  -->
<svg version="1.1" id="Layer_1" xmlns="http://www.w3.org/2000/svg" xmlns:xlink="http://www.w3.org/1999/xlink" x="0px" y="0px"
	 viewBox="0 0 24 24" style="enable-background:new 0 0 24 24;" xml:space="preserve">
<path fill="#fff" d="M10,16c0-1.104,0.896-2,2-2s2,0.896,2,2c0,0.738-0.404,1.376-1,1.723V20h-2v-2.277C10.404,17.376,10,16.738,10,16z M21,10
	v14H3V10h3V6c0-3.313,2.687-6,6-6s6,2.687,6,6v4H21z M8,10h8V6c0-2.206-1.795-4-4-4S8,3.794,8,6V10z M19,12H5v10h14V12z"/>
</svg>
