<?xml version="1.0" encoding="utf-8"?>
<!-- Generator: Adobe Illustrator 26.0.1, SVG Export Plug-In . SVG Version: 6.00 Build 0)  -->
<svg version="1.1" id="Layer_1" xmlns="http://www.w3.org/2000/svg" xmlns:xlink="http://www.w3.org/1999/xlink" x="0px" y="0px"
	 viewBox="0 0 645.34 962.97" style="enable-background:new 0 0 645.34 962.97;" xml:space="preserve">
<style type="text/css">
	.st0{fill:#231624;}
	.st1{fill:#868C56;}
	.st2{fill:#8C754B;}
	.st3{fill:#6A3B37;}
	.st4{fill:#5E7551;}
	.st5{fill:#584735;}
	.st6{fill:#CAA15C;}
	.st7{fill:#C9A554;}
	.st8{fill:#495644;}
	.st9{fill:#79604C;}
	.st10{fill:#372A30;}
	.st11{fill:#A88657;}
	.st12{fill:#7A614B;}
	.st13{fill:#3E3033;}
</style>
<g id="Layer_2_00000120529200259919201540000013972310826944467590_">
	<g id="Layer_1-2">
		<path class="st0" d="M644.85,906.76c0.44,12.86,0.3,25.73,0.34,38.59c0,3.12,0.17,6.23,0.15,9.35c-0.05,6-2.05,8-8,8.25
			c-0.64,0-1.28,0-1.92,0c-25.76,0-51.52,0-77.27,0c-151.57-0.37-303.15-0.12-454.72-0.1c-31.3333,0-62.6667,0.04-94,0.12
			c-1.7544,0.0486-3.5055-0.1774-5.19-0.67c-1.8279-0.4864-3.2037-1.9951-3.52-3.86c-0.3172-1.399-0.4947-2.826-0.53-4.26
			c0-6.24-0.06-12.48,0-18.72C0.84,889.31,0.25,843.17,0.46,797c-0.0985-1.036-0.0412-2.0809,0.17-3.1c0.89-1.32,2.32-1.92,3.61-2.7
			c1.0805-0.5596,1.6988-1.7323,1.55-2.94c-0.32-8.12-1.3-16.2-1.63-24.32c-0.0986-1.5231-0.6064-2.9915-1.47-4.25
			c-0.8576-1.3414-1.5493-2.782-2.06-4.29c-0.2114-1.3424-0.2684-2.7046-0.17-4.06c0-5.5,0-11,0-16.52
			c-0.0698-0.9434-0.0126-1.8918,0.17-2.82c0.4776-1.1818,1.0989-2.3002,1.85-3.33c2.53-3.79,5.24-7.47,7.71-11.29
			c0.9985-1.5547,2.4408-2.774,4.14-3.5c7.18-3.16,14.28-6.47,21.43-9.67c1.79-0.8,1.76-1.62,0.88-3.09c-5-8.36-10-16.74-15.1-25.09
			c-1.0711-1.5105-1.18-3.5017-0.28-5.12c6.1-12.86,12.33-25.66,18.42-38.52c1.56-3.3,0.77-6.78,1.55-10.1
			c0.0472-0.7954,0.1643-1.5851,0.35-2.36c0.4392-0.9985,1.5593-1.5068,2.6-1.18c0.79,0.14,1.56,0.35,2.34,0.54
			c18.06,4.52,36.1233,9.0133,54.19,13.48c2.2282,0.682,4.6456,0.314,6.57-1c3.47-2.27,7.09-4.32,10.66-6.44
			c1.3396-0.7538,2.3938-1.9275,3-3.34c1.21-2.79,2.3-5.62,3.62-8.35c0.7907-1.5834,0.8419-3.4352,0.14-5.06
			c-4.16-11.16-8-22.42-12.3-33.53c-2.32-6-4.15-12.06-3.45-18.61c0.07-6.15,0.08-12.31,0-18.47c0-2.31,0.77-3.82,2.92-4.65
			c0.74-0.29,1.4-0.81,2.16-1c6.06-1.81,10.1-6,13.76-10.95c5.19-7,10.75-13.72,16.18-20.54c0.25-0.31,0.46-0.71,0.8-0.88
			c3.21-1.67,3.6-4.77,4.18-7.87c2.89-15.65,6.25-31.2,9.12-46.85c0.2731-2.404,1.7289-4.5126,3.88-5.62
			c3.66-2,6.89-4.65,10.76-6.26c0.8591-0.4498,1.5215-1.2013,1.86-2.11c2.2-4.36,4.37-8.73,6.57-13.08c1-2.08,1-4.36,1.23-6.55
			c0.84-7.3,1.59-14.61,2.46-21.9c0.16-1.4419,0.8304-2.7791,1.89-3.77c6.56-6.33,13.2-12.57,19.58-19.08
			c1.58-1.61,3.73-1.79,5.76-2.09c2.0206-0.1754,3.7351-1.5541,4.34-3.49c1.21-3.13,2.69-6.18,3.76-9.34
			c2.28-6.8,6.29-12.53,10.47-18.2c1.66-2.25,1.66-2.57-0.15-4.79c-11-13.48-22-27-33.13-40.44c-3.1-3.75-3.2-3.77,0.54-6.87
			c9.84-8.16,19.71-16.2933,29.61-24.4c0.72-0.6,1.38-1.39,2.5-1.17c2.79,2.46,4.56,5.73,6.71,8.68
			c10.7333,14.7533,21.4,29.5433,32,44.37c1.1297,1.7281,3.0269,2.8016,5.09,2.88c5.0271,0.3105,10.0342,0.888,15,1.73
			c1.27,1.18,0.54,2.56,0.29,3.82c-2.9,14.57-5.66,29.17-8.62,43.72c-0.92,4.54-1.66,9.12-2.66,13.64
			c-0.3723,1.3099,0.0536,2.7166,1.09,3.6c6.8,6.87,14,13.28,20.77,20.21c3.79,3.89,8,7.33,11.76,11.26
			c2.188,3.5609,4.1907,7.2325,6,11c-0.11,3.55-1.35,6.88-2.05,10.31c-0.66,3.21-1.45,6.4-2.17,9.59
			c-0.8446,3.8065-4.6151,6.2077-8.4217,5.3631c-0.5462-0.1212-1.076-0.3069-1.5783-0.5531c-20.5067-10.62-40.9733-21.32-61.4-32.1
			l-0.64-0.33c-4-2.09-5.37-1.57-7.1,2.86s-3.27,8.85-4.92,13.26c-1.46,3.9-2.76,7.85-4.35,11.69
			c-0.6377,1.3976-0.5633,3.0168,0.2,4.35c5.6,10.6,11.1933,21.2033,16.78,31.81c0.0703,0.1421,0.1505,0.2791,0.24,0.41
			c2.46,3.35,2.46,6.3-0.19,9.88c-3.9,5.24-7.24,10.92-10.8,16.42c-0.4438,0.9405-1.1352,1.7425-2,2.32
			c-1.49,0.44-2.87-0.14-4.21-0.58c-7.53-2.44-15.17-4.55-22.67-7.08c-2.28-0.78-4.44-0.32-6.63-0.05
			c-6.11,0.75-12.21,1.54-18.32,2.25c-1.71,0.2-2.63,0.68-2.36,2.69c2.43,17.58,4.82,35.17,7.31,52.75c0.38,2.69,0.6,3,3.39,2.76
			c8.12-0.61,16.25-1.11,24.37-1.71c5.57-0.41,11.15-0.76,16.73-1.1c2.93-0.18,3.26,0.14,4.05,2.94c2.33,8.23,4.75,16.44,6.94,24.71
			c0.405,2.3152,2.2611,4.1026,4.59,4.42c7.8,1.77,15.55,3.75,23.28,5.79c2.5475,0.6797,5.212,0.7991,7.81,0.35
			c8.76-1.42,17.55-2.71,26.32-4c4-0.6,7.79,0.62,11.66,1c1.51,0.17,3,0.45,4.5,0.74c1.72,0.33,2.69-0.33,3.3-2
			c1.54-4.12,2.9-8.31,4.35-12.46c1.56-4.45,3.25-8.86,4.65-13.37c0.6292-1.9059,1.8174-3.5785,3.41-4.8
			c8.14-6.72,16.36-13.35,24.29-20.31c4-3.53,8.34-3.58,12.73-2c5.49,1.94,10.58,4.91,15.84,7.44c2.07,1,3.57,0.86,5.16-0.68
			c4.65-4.5,9.47-8.83,14.22-13.23c8-7.44,16.0367-14.8734,24.11-22.3c2.94-2.7,6-5.29,8.76-8.18c1.479-1.59,3.4206-2.6745,5.55-3.1
			c2.27-0.47,4.53-1,6.79-1.53c2.51-0.58,3.1,0,2.78,2.49c-1.18,9.52-2.45,19-3.69,28.54c-0.42,3.17-0.72,6.35-1.25,9.51
			c-0.2946,1.817-0.1541,3.6779,0.41,5.43c3.62,12,7.23,24.0267,10.83,36.08c0.4463,0.9365,0.6721,1.9627,0.66,3
			c-0.46,2.68,0.91,4.56,2.41,6.48c2.37,3,4.64,6.12,6.92,9.21c0.8491,1.3002,2.3182,2.0594,3.87,2c12.71,0,25.41-0.64,38.12-0.6
			c4.27,0,8-2.57,11.94-4.14c1.17-0.47,0.76-1.62,0.58-2.55c-1.26-6.76-2.5433-13.5167-3.85-20.27
			c-0.7756-3.1887-1.3798-6.4166-1.81-9.67c-0.47-5.53-3.55-9.84-6.32-14.31c-3.16-5.11-6.27-10.23-9.45-15.32
			c-0.932-1.4951-1.5448-3.1667-1.8-4.91c-0.6-3.88-1.39-7.72-2-11.6c-0.2875-2.0682-1.5324-3.88-3.36-4.89
			c-9.71-6.37-19.74-12.18-29.75-18c-2.14-1.25-2.8-2.81-3-5.22c-0.74-10.07,1.5-19.7,3.84-29.35c1.47-6.06,2.78-12.16,4.23-18.23
			c0.5807-1.856-0.0109-3.8792-1.5-5.13C460,426.6,452.87,418.44,445,411c-1.7806-1.856-3.0457-4.1449-3.67-6.64
			c-1-3.16-3-4.9-6-6.26c-8.3-3.76-16.59-7.57-24.79-11.53c-3.46-1.67-7.1-2.95-10.31-5.1c-4.09-4.39-7.61-9.24-11.36-13.91
			c-0.8909-1.3328-2.4601-2.0457-4.05-1.84c-3.81,0.3-7.66,0.09-11.49,0.11c-2.85,0.32-4.81-0.81-6.75-3
			c-7.76-8.89-15.7-17.62-23.52-26.44c-5.45-6.14-11-12.22-16.43-18.35c-2.07-2.32-5.23-3-7.84-4.5
			c-0.207-0.0929-0.4075-0.1999-0.6-0.32c-0.29-0.16-0.58-0.34-0.87-0.52c-1.46-1.16-2.8-2.47-4.27-3.63
			c-0.7401-0.4688-1.2092-1.2654-1.26-2.14c0.2025-0.9364,0.5609-1.8322,1.06-2.65c5.16-10.34,10.36-20.67,15.52-31
			c0.303-0.998,0.9159-1.8737,1.75-2.5c1.9291-0.5271,3.9202-0.7928,5.92-0.79c11.82,0,23.62-0.73,35.42-1.11
			c5.49-0.18,11,0.11,16.5-0.71c1.5461-0.0568,2.8422-1.1862,3.11-2.71c2-7.24,4-14.5,6.14-21.69c0.5661-1.6947,0.1849-3.5627-1-4.9
			c-4.17-5.36-8.28-10.77-12.4-16.17c-1-1.32-2.67-2.11-3.11-3.88c-2.21-10.33-3.92-20.75-5.92-31.11
			c-2.25-11.62-4.39-23.27-6.6-34.9c-0.2912-1.2447-0.4686-2.5132-0.53-3.79c0.06-1.17,0.85-1.57,1.84-1.89
			c21.4333-6.98,42.84-14.0433,64.22-21.19c3-1,5.12-0.71,7.24,1.69c2.12,2.4,4.17,4.41,6.15,6.71
			c0.8566,0.8682,1.1472,2.1469,0.75,3.3c-3.72,12.24-7.22,24.54-11.13,36.72c-1.66,2.8-4.13,4.84-6.57,6.9s-2.64,2.5-1.39,5.48
			c6.72,16.08,13.3666,32.19,19.94,48.33c1.28,3.15,2.92,5.57,6.22,6.74c1.42,0.51,2.7,1.41,4.09,2c2.16,0.89,2.62,2.47,2.39,4.64
			c-1.06,10.16-1.88,20.35-2.83,30.52c-0.57,6.12-1,12.26-1.74,18.36c-0.3452,1.8373,0.2086,3.7289,1.49,5.09
			c1.245,1.3601,2.2433,2.9269,2.95,4.63c2.93,6.66,5.85,13.32,9,19.89c1.39,2.92,1.38,6.05,1.73,9.12
			c0.0359,1.5207,0.7745,2.9389,2,3.84c6.42,4.49,10,11.32,14.43,17.46c0.6726,1.1001,0.9806,2.3845,0.88,3.67
			c0.13,13,0.58,26,0.56,39.07c0,7.18,0.58,14.37,0.39,21.56c-0.08,2.84,1.88,1.85,3.29,2c0.6271,0.0253,1.2543-0.0455,1.86-0.21
			c0.3772-0.0649,0.7628-0.0649,1.14,0c8.64,3.35,17.09,7.16,25.64,10.72c1.2075,0.4683,2.2148,1.3414,2.85,2.47
			c5.3,9.54,12.27,17.91,18.74,26.63c1.8271,2.2539,2.7599,5.1019,2.62,8c0.0211,2.1544,0.1781,4.3054,0.47,6.44
			c0.1,1.52,0.88,2,2.29,2.17c6.91,0.74,13.8,1.61,20.69,2.45l18.31,2.18c1.8482,0.1837,3.5331,1.1386,4.64,2.63
			c5.0867,6.2667,10.1533,12.5534,15.2,18.86c0.6029,0.6488,1.0057,1.4579,1.16,2.33c-0.82,3.65-2.9,6.72-4.59,10
			c-4.11,7.87-8.29,15.7-12.38,23.58c-0.523,0.8163-0.7556,1.7852-0.66,2.75c0.53,3.23,1.16,6.45,1.92,9.64
			c0.3923,1.0613,1.166,1.9384,2.17,2.46c7.8,5.59,15.58,11.22,23.45,16.7c2.3692,1.5043,4.0779,3.8528,4.78,6.57
			c2.26,8.58,4.6234,17.1367,7.09,25.67c0.4908,1.5482-0.0031,3.2394-1.25,4.28c-3.68,3.68-7.77,6.91-11.5,10.52
			c-1.503,1.4506-2.8442,3.0601-4,4.8c-7.5733,11.3934-15.1566,22.7767-22.75,34.15c-1.83,2.75-1.82,2.82,0.26,5.4
			c0.8,1,1.56,2,2.4,3c1.5093,1.7717,2.3388,4.0226,2.34,6.35c0.22,5.1,0.65,10.2,1.19,15.28c0.36,3.35,0.08,6.71,0.19,10.07
			c0.33,9.59-0.74,19.17-0.5,28.76c0.0273,0.7997-0.0983,1.5973-0.37,2.35c-2.1403,5.7411-1.3965,12.1605,2,17.26
			c3.3,5.3,6.73,10.53,10.52,15.47c3,3.94,4.22,8.3,4.61,13.1c0.52,6.29,1.41,12.55,2.23,18.8
			c0.4168,2.3756-0.0759,4.8211-1.38,6.85c-4.22,6.5133-8.3934,13.05-12.52,19.61c-1.84,2.9-1.87,2.93,1.31,4.52
			c9.51,4.77,19,9.55,28.55,14.26c3.66,1.81,7.17,3.89,10.82,5.7c1.1719,0.4089,1.9444,1.5292,1.91,2.77c0,19.11,0,38.23,0,57.34
			C644.9709,906.4866,644.9203,906.6282,644.85,906.76z"/>
		<path class="st1" d="M436.4,174.18c1.15-4,2.26-8,3.45-12c2.4667-8.26,4.9633-16.51,7.49-24.75c0.4644-1.0479,0.1694-2.277-0.72-3
			c-2.46-2.39-4.87-4.85-7.16-7.41c-1.25-1.4-2.42-1.59-4.2-1c-20.9667,7.0133-41.9667,13.97-63,20.87
			c-1.024,0.4584-2.1208,0.7326-3.24,0.81c-0.62,0-0.78,0.43-0.9,0.91c-1.74-0.92-3.32-2.1-5-3.11c-1.43-0.85-1.82-2.33-2.13-3.84
			c1-8.58,2.61-17.06,3.92-25.59c1.52-9.87,3.15-19.73,4.74-29.6c0.29-1.84-0.12-3.08-1.75-4
			c-0.9966-0.5177-1.9324-1.1449-2.79-1.87c-3.38-3-7.15-3.45-11.57-2.82c-16.14,2.31-32.34,4.12-48.51,6.17
			c-1.4546,0.087-2.7938,0.8208-3.65,2c-0.7501,1.0447-1.7237,1.909-2.85,2.53c-9.3333,5.2067-18.6667,10.4367-28,15.69
			c-1.4742,0.835-3.2041,1.0984-4.86,0.74c-7.07-1.31-14.13-2.72-21.2-4.06c-3-0.57-3.12-0.51-4.25,2.35
			c-4,10.1867-8,20.3867-12,30.6c-0.346,1.3206-1.0163,2.534-1.95,3.53c-3.76,2.83-7.9,5.09-11.86,7.62c-2.26,1.44-2.33,1.57-1.14,4
			c6.6667,13.3333,13.3333,26.6667,20,40c0.5864,0.9528,1.0278,1.9874,1.31,3.07c-0.82,3.62-2.85,6.72-4.28,10.08
			c-2.33,5.5-5.18,10.76-7.22,16.39c-0.1316,0.3915-0.3707,0.738-0.69,1c-2.51,0.66-4.93-0.21-7.28-0.74
			c-3.0341-0.7123-6.2257-0.2364-8.92,1.33c-9.89,5.25-20.13,9.77-30.11,14.84c-1.7274,0.8074-3.0875,2.2354-3.81,4
			c-2.14,5-4.56,9.86-6.82,14.8c-1.22,2.67-1.87,2.84-4.39,1.34c-16.04-9.5667-32.08-19.1733-48.12-28.82
			c-2.13-1.28-3.36-3.39-4.82-5.27c-0.905-1.3393-2.5549-1.964-4.12-1.56c-6.33,1-12.06,3.72-17.89,6.09
			c-3.703,1.6812-7.886,1.9792-11.79,0.84c-9.76-2.77-19.61-5.26-29.47-7.66c-1.7592-0.3364-3.2789-1.435-4.15-3
			c-2.92-5.41-8.39-7.4-13.32-10.12c-1.65-0.91-3.3-0.21-4.88,0.29c-5.86,1.88-11.67,3.91-17.53,5.79c-1.39,0.44-2.8,1.32-4.36,0.45
			c0-1-0.1-1.91-0.1-2.86c0-61.54,0-123.0733,0-184.6c0-0.87,0.05-1.75,0.09-2.63c0.9-0.29,1.54,0.28,2.16,0.74
			c2,1.48,4.05,2.87,6.14,4.19c3.16,2,5.47,4.84,8,7.5c3.56,3.77,7.68,6.57,13.32,5.37c1.4755-0.3634,2.9905-0.5415,4.51-0.53
			c3.79,0.2,6.24-1.71,8.49-4.44C48,29,53.41,23.58,58.11,17.61c0.7703-0.8103,1.7859-1.3445,2.89-1.52c9-2.53,17.9-4.95,26.86-7.34
			c3.4022-0.8772,6.5813-2.4616,9.33-4.65c1.29-1,2.63-2,4-3c-0.71,0.69-1.61,0.42-2.41,0.42c-7.91,0-15.83,0.05-23.74,0
			c-1,0-2.32,0.52-2.85-1c2.48,0,5-0.06,7.44-0.06c20.3867,0,40.78,0,61.18,0c35.46,0,70.9567,0,106.49,0
			c18.5466,0,37.1,0.0233,55.66,0.07c0.1641,0.1866,0.2437,0.4327,0.22,0.68c-0.44,2.69-1.05,5.33-1.56,8
			c-0.63,3.36,0.69,5.7,4,6.86c2.78,1,5.58,2,8.38,2.91c9.7533,3.3333,19.4933,6.7133,29.22,10.14
			c1.6345,0.7081,3.529,0.4291,4.89-0.72c2.86-2.18,5.79-4.26,8.72-6.35c0.7686-0.705,1.6839-1.2309,2.68-1.54
			c4.81-0.48,9.58,0.28,14.33,0.68c2.86,0.24,5.08-0.19,7.08-2.4c4-4.45,8.17-8.76,12.39-13c1.7258-1.7863,4.0442-2.8814,6.52-3.08
			c5.37-0.57,10.7-1.4,15-1.52c-6.62,0.74-14.37,0.38-22.1,0.42c-8.95,0-17.91,0-26.86,0c-1.1961,0.1428-2.409,0.0164-3.55-0.37
			L362,0.94c0-0.14,0-0.28,0.07-0.42c0.88,0,1.76-0.06,2.63-0.06c20.7133,0,41.4234,0,62.13,0c45.4933,0,90.9833,0,136.47,0
			c13.19,0,26.39,0.17,39.57-0.19C611.23,0,619.61,0.17,628,0c1.9105-0.097,3.8257,0.0475,5.7,0.43c1.23,1.15,1.56,2.77,2.09,4.25
			c1.2,3.3,2.49,6.58,3.87,9.8c1.019,2.5231,2.9811,4.5499,5.47,5.65c0,1.52,0,3,0,4.55V285c0,58.9533,0,117.9,0,176.84
			c0,19.2,0.0167,38.3967,0.05,57.59c0,0.87-0.07,1.75-0.11,2.63c-0.61,0-0.75-0.47-0.92-0.92
			c-0.1846-0.7756-0.2553-1.574-0.21-2.37c0-18.22,0-36.44,0-54.66c0.0984-1.3543,0.1218-2.7131,0.07-4.07V292.38
			c-0.03-0.4795-0.03-0.9605,0-1.44c0.27-2-0.66-2.79-2.65-3.05c-14.9-1.91-29.78-4-44.68-6c-3.41-0.45-6.86-0.56-9.41-3.46
			c-1.13-1.29-2.7-0.61-4.05-0.1c-6.13,2.32-12.29,4.58-18.44,6.85c-6.4533,2.3733-12.9033,4.7533-19.35,7.14
			c-2.77,1-3.53,0.82-5.42-1.45c-3-3.63-6-7.25-9-10.89c-1.444-1.7359-2.4489-3.7939-2.93-6c-1.22-5.38-2.56-10.73-3.82-16.1
			c-0.366-1.7223-1.3295-3.2597-2.72-4.34c-9.4667-7.62-18.9134-15.2666-28.34-22.94c-2.86-2.32-3-2.42-1.8-5.86
			c0.7758-2.0367,0.4911-4.3255-0.76-6.11c-5-7.89-9.87-15.9-14.69-23.92c-1.4128-2.3214-3.5806-4.0867-6.14-5
			c-10.44-4.27-20.79-8.75-31.17-13.16C437.62,176.19,436,176.09,436.4,174.18z"/>
		<path class="st2" d="M0.61,212.12c3.65-0.57,7-2.06,10.52-3.14c4.42-1.36,8.74-3,13.21-4.26c1.1382-0.3831,2.3857-0.263,3.43,0.33
			l9.21,5.1c1.0095,0.6583,1.8053,1.5966,2.29,2.7c2,3.61,5,5.19,9,6.1c10.08,2.29,20.06,5,30.06,7.68
			c0.9829,0.2994,2.0369,0.2678,3-0.09c5-1.92,10-3.68,15-5.74c3.07-1.29,6.33-1.54,9.47-2.39c0.73-0.19,1.15,0.24,1.57,0.79
			c1.17,1.51,2.46,2.94,3.6,4.47c0.6746,0.887,1.5216,1.6285,2.49,2.18c9.2333,5.52,18.4567,11.0567,27.67,16.61
			c7.0533,4.22,14.1067,8.4267,21.16,12.62c1.34,0.79,1.43,0.8,2.11-0.61c1.57-3.23,3.17-6.45,4.56-9.76
			c1.12-2.65,2.65-5.1,3.56-7.85c0.392-0.8914,1.1505-1.5696,2.08-1.86c5.83-2.8,11.55-5.84,17.44-8.53
			c5.52-2.53,10.89-5.38,16.32-8.12c1.2267-0.7213,2.6826-0.9467,4.07-0.63c3.24,0.74,6.58,1.08,9.87,1.58c1,0.12,1.47,0.88,2,1.56
			c2.79,3.48,5.56,7,8.37,10.44c0.8525,0.9595,1.2207,2.2556,1,3.52c-1,6.77-2.24,13.51-3.11,20.3
			c-0.0078,0.4851-0.2453,0.9378-0.64,1.22c-1.41,0.14-2.15,1.34-3.11,2.11c-6.93,5.65-13.79,11.39-20.68,17.09
			c-3.14,2.59-6.31,5.15-9.45,7.74c-0.49,0.4-0.95,0.84-1.52,1.36c1.4465,2.0993,3.0264,4.1034,4.73,6
			c7.7533,9.56,15.53,19.0866,23.33,28.58c2.88,3.53,5.77,7,8.64,10.58c1.16,1.44,1.14,1.47,0.06,3c-1.35,2-2.63,4-4.13,5.88
			c-2.697,3.4687-4.8329,7.3391-6.33,11.47c-1.64,4.25-3.45,8.42-5.14,12.65c-0.49,1.21-1.13,2.09-2.55,2.11
			c-0.15,0-0.3,0.13-0.46,0.14c-4.3,0.14-7.29,2.48-10.15,5.49c-4.62,4.87-9.57,9.42-14.35,14.13c-3.31,3.25-3.34,3.26-3.84,7.79
			c-0.72,6.5-1.37,13-2,19.5c-0.1937,3.1051-1.0495,6.1329-2.51,8.88c-2.1,3.67-3.88,7.52-5.76,11.32
			c-0.3364,0.9975-1.1854,1.7356-2.22,1.93c-0.7841,0.1813-1.5227,0.5217-2.17,1c-3.1,2-6.23,3.89-9.36,5.82
			c-1.0242,0.4961-1.7622,1.437-2,2.55c-2.9733,15.2533-5.9733,30.5-9,45.74c-0.49,2.51-1,5-1.42,7.52
			c-0.0431,0.975-0.6654,1.8296-1.58,2.17c-1.0195,0.4752-1.8881,1.2227-2.51,2.16l-20.92,26.52
			c-0.7894,1.0202-1.8204,1.8278-3,2.35c-3.06,1.38-6,2.9-9.13,4.23c-1.2318,0.4164-2.0036,1.6388-1.85,2.93
			c0,6.39-0.07,12.79-0.11,19.19c-0.2964,2.0501-0.3435,4.1286-0.14,6.19c0.2102,1.679-0.727,3.2917-2.29,3.9401
			c-6.93,3.45-13.72,7.17-20.59,10.74c-17.57,9.13-35.07,18.38-52.64,27.5c-1.74,0.91-1.76,1.65-0.58,3c2.6,3,5.23,6,7.86,9
			c0.9,1,1.56,2,0.93,3.41c-0.19,3-0.41,6-0.56,9.08c-0.0855,0.9517-0.361,1.8765-0.81,2.72c-2.92,6.1334-5.84,12.26-8.76,18.38
			c-3.43,7.21-6.86,14.42-10.36,21.6c-0.5617,0.9606-0.4988,2.1632,0.16,3.06c5.39,8.87,10.72,17.77,16.07,26.66
			c1.12,1.87,1.1,1.93-0.8,2.79c-7.56,3.41-15.12,6.85-22.7,10.24c-1.3281,0.5775-2.4506,1.5431-3.22,2.7701
			c-3.07,4.57-6.24,9.07-9.37,13.61c-0.2362,0.4181-0.5819,0.7638-1,1c0-0.87-0.13-1.75-0.13-2.62c0-105.9533,0-211.9067,0-317.86
			c0-0.88,0.07-1.75,0.11-2.63c1.21-0.93,2.6-0.66,3.93-0.53c5,0.48,10,0.56,15.06,0.85c0.7975-0.0605,1.5993-0.0303,2.39,0.09
			c3.8,1.12,6.8-0.26,9.64-2.71c1.4423-1.1331,2.5174-2.6674,3.09-4.41c1.65-5.35,3.56-10.61,5.19-16
			c0.5854-1.7456,0.5854-3.6344,0-5.38c-2.16-6.36-3.91-12.85-6.1-19.19c-1.0927-2.9289-1.2292-6.1287-0.39-9.14
			c3-10.94,5.63-22,8.52-33c0.83-3.17,0.71-3.55-2.42-4.52c-8.55-2.64-16.77-6.36-25.64-7.9c-3.54-0.62-7.1-1.16-10.65-1.72
			c-0.9628-0.0635-1.8758-0.4512-2.59-1.1c0-0.8-0.11-1.59-0.11-2.38c0-29.1266,0-58.2567,0-87.39
			C0.5,213.71,0.57,212.92,0.61,212.12z"/>
		<path class="st3" d="M644.74,521.71l0.37,0.39c0,1,0,2.07,0,3.11c0,106.1066,0,212.22,0,318.34c0,20.1533,0,40.3033,0,60.45
			c0,0.92,0.35,1.92-0.35,2.76c0-1-0.08-1.92-0.08-2.87c0-17.84,0-35.67,0-53.51c0.168-1.7337-0.837-3.3678-2.46-4
			c-13.32-7-26.84-13.51-40.24-20.3c-0.36-0.19-0.72-0.36-1.07-0.55c-1-0.52-1.1-1.19-0.46-2.13c1.21-1.79,2.34-3.62,3.5-5.44
			c3.55-5.58,7-11.23,10.7-16.73c1.0551-1.6111,1.4156-3.5796,1-5.46c-0.59-3.61-0.87-7.25-1.33-10.88
			c-0.43-3.39-0.89-6.77-1.32-10.16c-0.08-0.63,0-1.28-0.12-1.91c-0.153-2.136-0.8408-4.1993-2-6c-4.71-6.73-9.29-13.55-13.94-20.32
			c-1.09-1.6-1.11-3.46-1.32-5.26c-0.0958-1.9857-0.3195-3.9631-0.67-5.92c-0.3784-1.3141-0.1152-2.7296,0.71-3.82
			c0.6831-0.985,1.0078-2.1745,0.92-3.37c0-1.44,0-2.88,0-4.32c0.2-10.22,0.69-20.44,0.46-30.67c-0.08-3.42-0.6-6.81-0.81-10.22
			c-0.18-2.94-0.72-5.87-0.58-8.81c0.0884-2.2504-0.746-4.4394-2.31-6.06c-1.2-1.39-2.3-2.86-3.41-4.31s-1.19-1.57-0.08-3.24
			c5.26-7.9133,10.5233-15.82,15.79-23.72c2.39-3.58,4.87-7.11,7.15-10.76c2.2653-3.4818,5.0743-6.5778,8.32-9.17
			c3-2.51,5.73-5.32,8.61-8c0.7405-0.6264,0.9698-1.671,0.56-2.55c-2.65-9.35-5.23-18.72-7.8-28.09
			c-0.2576-1.0916-0.9093-2.0495-1.83-2.69c-7.86-5.59-15.68-11.23-23.56-16.8c-4.36-3.09-4.4-3.05-5.31-8.28
			c-0.06-0.32-0.06-0.64-0.12-1c-0.39-1.94-1.29-4-1-5.81s1.57-3.63,2.5-5.4c2.09-4,4.25-7.86,6.33-11.82c3-5.67,5.87-11.36,8.79-17
			c0.1574-0.3654,0.2943-0.7393,0.41-1.12c2.1465-1.4254,4.8895-1.6006,7.2-0.46c9,4.14,17.92,8.62,27,12.64
			C643.592,520.7391,644.2244,521.1629,644.74,521.71z"/>
		<path class="st0" d="M0.61,304.28l15.57,2.46c0.7886,0.1167,1.565,0.3041,2.32,0.56c7.5733,2.5267,15.1333,5.0733,22.68,7.64
			c2.33,0.8,2.32,0.87,1.72,3.2c-3.12,12.28-6.25,24.5667-9.39,36.86c-0.3283,1.1467-0.3074,2.3652,0.06,3.5
			c2.27,7.14,4.43,14.32,6.74,21.45c0.8696,2.3004,0.8909,4.8354,0.06,7.15c-2,5.39-3.62,10.9-5.35,16.37
			c-0.3299,1.2328-1.1024,2.3008-2.17,3c-0.9753,0.5539-1.8787,1.2256-2.69,2c-1.88,2-4.19,2.05-6.62,1.73
			c-0.56-0.08-1.1-0.23-1.66-0.26l-21.27-1.06c0-0.87-0.15-1.75-0.15-2.62c0-33.2,0-66.4,0-99.6
			C0.46,305.87,0.55,305.07,0.61,304.28z"/>
		<path class="st4" d="M72.14,0.52c0.76,0.67,1.69,0.37,2.53,0.37c9,0,18.07,0,27.41,0C100.22,3,97.9,4,96.1,5.73
			c-2.84,2.68-6.54,3.18-10,4.17c-8.5,2.4-17,4.63-25.58,6.94c-1.0216,0.1997-1.8911,0.8657-2.35,1.8c-0.79,1.57-2.24,2.67-3.36,4
			c-3,3.55-6.14,6.91-9.25,10.32c-1.34,1.48-2.64,3-3.91,4.53c-0.8229,1.151-2.11,1.8823-3.52,2c-3.8,0.32-7.55,1-11.36,1.24
			c-1.2095,0.1058-2.414-0.2516-3.37-1c-0.2427-0.2072-0.5159-0.3759-0.81-0.5c-4.16-1.42-6.72-4.68-9.23-8
			c-1.29-1.71-3.25-2.55-4.88-3.81C5.94,25.52,3.22,23.83,0.6,22C0.47,17.41,0.41,12.79,0,8.17s2-6.86,6.54-7.59
			c2.4155-0.4904,4.895-0.5816,7.34-0.27c0.6355,0.0551,1.2745,0.0551,1.91,0h53.5C70.245,0.2194,71.2085,0.2904,72.14,0.52z"/>
		<path class="st2" d="M0.63,755.43C3.12,758.59,5,761.87,5,766.18c0.08,5.63,0.78,11.26,1.25,16.88c0.18,2.15-0.09,4.31,0.43,6.43
			c0.155,0.5656-0.1251,1.1597-0.66,1.4c-1.8,1-3.39,2.38-5.39,3c0-0.55-0.13-1.11-0.13-1.66c0-11.8067,0-23.6133,0-35.42
			C0.5199,756.3481,0.5633,755.8875,0.63,755.43z"/>
		<path class="st2" d="M436.4,174.18c0.12,1.12,1.11,1.29,1.87,1.62c4.17,1.8,8.36,3.56,12.55,5.33l17.85,7.49
			c0.15,0.07,0.29,0.15,0.44,0.21c5.49,2.24,5.46,2.25,8.53,7.3c4.67,7.7,9.35,15.4,14.11,23c1.0197,1.3417,1.2766,3.1139,0.68,4.69
			c-0.09,0.22-0.18,0.45-0.25,0.67c-1.17,3.67-1.14,3.63,1.84,6c5,4,9.89,8,14.84,12c4.5934,3.6867,9.1933,7.3533,13.8,11
			c1.1401,0.8757,1.905,2.1517,2.14,3.57c0.67,3.44,1.61,6.81,2.43,10.22c0.48,2,1.08,4,1.37,6c0.52,3.72,3,6.23,5.18,8.93
			s4.36,5.28,6.54,7.91l0.15,0.19c1.81,2.27,2,2.35,4.81,1.32l37-13.78c0.3127-0.0721,0.6201-0.1657,0.92-0.28
			c2.32-1.26,4.26-0.9,5.82,1.29c0.7361,0.9747,1.8527,1.5894,3.07,1.69c4.17,0.56,8.35,1,12.52,1.54c2.6,0.33,5.19,0.74,7.79,1.1
			l9.66,1.29c2.76,0.38,5.5,0.78,8.25,1.17c2.91,0.41,5.81,0.88,8.73,1.18c1.11,0.12,2.2,0.31,3.3,0.48
			c2.44,0.38,2.45,0.34,2.45,2.85V461.54c0,0.72,0,1.44-0.06,2.16c-1.07-0.07-1.47-0.95-1.84-1.7c-3.72-7.42-9.89-12.91-15.17-19.08
			c-5.6-6.56-11.49-12.88-17.13-19.41c-1.52-1.75-3-3.51-4.64-5.18c-2.49-2.59-4.62-5.29-5.26-8.94c-0.27-1.57-1.38-1.43-2.59-1.17
			c-4.0297,0.9866-8.1393,1.6124-12.28,1.87c-8.26,0.29-15.37-2.92-22.57-6.23c-8.87-4.07-17.76-8.08-26.72-11.92
			c-3.3964-1.6151-7.4486-0.8331-10,1.93c-9.31,9.13-18,18.86-27.4,27.89c-0.7045,0.867-1.6063,1.5527-2.63,2l-0.95,0.07
			c-0.45,0.29-1,0-1.47,0.33c-1.0392,0.0199-2.074,0.1405-3.09,0.36c-0.81,0.25-1.21-0.13-1.21-0.95c0-0.4,0-0.8,0-1.2
			c-0.05-15.35-0.56-30.7-0.62-46c0-5.43-0.28-10.86-0.3-16.3c-0.0049-0.8817-0.2884-1.7392-0.81-2.45c-2.56-3.66-5.08-7.37-7.68-11
			c-1.93-2.7-4.69-4.57-7.21-6.64c-1.0911-0.8011-1.7191-2.087-1.68-3.44c-0.0438-4.07-0.9898-8.0797-2.77-11.74
			c-2.93-5.85-5.44-11.91-8.1-17.9c-0.5709-1.5086-1.4652-2.8739-2.62-4c-1.75-1.54-2-3.49-1.72-5.67
			c0.52-4.83,0.92-9.68,1.38-14.52c0.42-4.37,0.88-8.73,1.3-13.1c0.37-4,0.7-7.94,1.06-11.91c0.28-3.1,0.54-6.2,0.89-9.29
			c0.3-2.74,0.29-2.85-2.12-4.08s-4.7-2.4-7.07-3.55c-0.9291-0.4331-1.6483-1.2171-2-2.18c-3.53-8.65-7.14-17.27-10.72-25.91
			c-3.78-9.15-7.51-18.32-11.38-27.44c-0.6231-1.043-0.3146-2.3917,0.7-3.06c2.09-1.86,4.13-3.78,6.15-5.71
			C435.08,175.78,435.71,175,436.4,174.18z"/>
		<path class="st5" d="M400.44,381.06c7.29,3.63,14.71,7,22.12,10.38c3.19,1.46,6.35,3,9.53,4.5c2.1,1,4.18,2,6.32,2.89
			c1.1163,0.4571,1.9829,1.371,2.38,2.51c0.71,1.78,1.55,3.51,2.14,5.33c0.4919,1.4344,1.334,2.7234,2.45,3.75
			c3.58,3.55,7.23,7,10.65,10.73c4.35,4.69,8.85,9.23,13.37,13.75c0.8011,0.6557,1.1152,1.7372,0.79,2.72
			c-1.64,6.8-3.09,13.65-4.64,20.48c-1.18,5.2-2.41,10.39-3.58,15.59c-0.1189,0.7101-0.1624,1.4308-0.13,2.15c0,4,0.08,8,0,12
			c-0.1195,1.359,0.6466,2.6413,1.9,3.18c10.44,6.17,20.91,12.28,31.12,18.83c1.7684,1.0754,2.911,2.9364,3.07,5
			c0.58,4.17,1.41,8.3,2.06,12.46c0.31,2.06,1.47,3.69,2.51,5.37c4.25,6.94,8.57,13.83,12.88,20.73
			c0.5806,0.9592,0.9805,2.0167,1.18,3.12c1.93,9.83,3.88,19.66,5.68,29.51c0.38,2.11,0.87,4.2,1.14,6.34c0.1,0.8,0.1,1.36-0.76,1.7
			c-3.72,1.44-7.35,3.1-11.17,4.28c-0.6238,0.1342-1.2637,0.1779-1.9,0.13c-3.2,0-6.4,0.09-9.6,0c-9.43-0.25-18.84,0.68-28.27,0.54
			c-1.6733,0.11-3.2729-0.7032-4.17-2.12c-2.9-4.1-6-8.09-9-12.06c-0.5799-0.6386-0.7778-1.5368-0.52-2.36
			c0.2326-1.1012,0.1635-2.2448-0.2-3.31c-2.68-8.77-5.31-17.55-7.95-26.33c-1.31-4.35-2.55-8.72-3.9-13.06
			c-0.5-1.63,0.15-3.14,0.28-4.69c0.28-3.32,0.85-6.62,1.29-9.92c0.61-4.49,1.23-9,1.81-13.46c0.54-4.18,1-8.36,1.56-12.54
			c0-0.24,0-0.48,0-0.72c0.39-2.79,0.4-2.79-2.27-2.15s-5.09,1.29-7.66,1.82c-1.0948,0.2293-2.1011,0.7672-2.9,1.55
			c-5.28,5-10.54,10-15.91,14.89c-4.31,3.93-8.57,7.89-12.83,11.86s-8.62,8.08-13,12c-2.73,2.44-5.16,5.22-8.13,7.42
			c-0.6267,0.6094-1.5883,0.7126-2.33,0.25c-4.81-2.36-9.72-4.51-14.42-7.06c-3.57-1.94-7.27-2.15-11.13-2
			c-1.49,0.08-2.37,1.27-3.38,2.09c-5.74,4.68-11.42,9.45-17.11,14.19c-2.94,2.44-5.8767,4.89-8.81,7.35
			c-0.9868,0.8172-1.719,1.8999-2.11,3.12c-2.81,8.23-5.69,16.44-8.55,24.65c-0.37,1-0.75,2.1-1.17,3.14
			c-0.282,1.0222-1.3392,1.6223-2.3615,1.3403c-0.023-0.0063-0.0458-0.0131-0.0685-0.0203c-4.07-0.74-8.15-1.37-12.23-2
			c-2.89-0.46-5.72,0.18-8.55,0.59c-4.88,0.7-9.74,1.46-14.61,2.2c-3.62,0.55-7.24,1-10.84,1.66
			c-0.7725,0.1469-1.5677,0.123-2.33-0.07c-9.3333-2.3467-18.6867-4.6633-28.06-6.95c-1.336-0.2203-2.3846-1.2648-2.61-2.6
			c-2.47-9.07-5.11-18.1-7.71-27.13c-0.53-1.87-0.58-2-2.35-1.85c-3.81,0.28-7.64,0.27-11.42,0.85
			c-0.2366,0.0497-0.4784,0.0699-0.72,0.06c-3.7496-0.0569-7.4987,0.1469-11.22,0.61c-5.54,0.43-11.12,0.51-16.65,1.26
			c-1.4333,0.1235-2.8735,0.1469-4.31,0.07c-1,0-1.41-0.53-1.53-1.47c-0.64-5-1.27-10.09-2-15.13s-1.54-10.37-2.27-15.56
			c-0.56-4-1-8.05-1.56-12.06s-1.15-8.18-1.78-12.26c-0.33-2.09,0.06-2.74,2.21-3c4.42-0.52,8.85-1,13.27-1.5
			c3.07-0.38,6.13-0.84,9.19-1.3c0.7897-0.1125,1.5949-0.0372,2.35,0.22c7.76,2.4533,15.5233,4.8766,23.29,7.27
			c1.4733,0.6116,3.0455,0.9504,4.64,1c0.93,0.62,0.88,1.67,1.08,2.57c1.83,8.11,4,16.13,5.8,24.25c0.46,2.11,1.44,2.92,3.6,2.82
			c13.64-0.65,27.35-0.1,40.93-1.25c7-0.59,13.66,0.22,20.46,0.64c1.6161,0.1237,3.1875-0.5665,4.1899-1.8401
			c4.06-4.52,8.1667-8.9933,12.32-13.42c1.0357-1.2264,2.5756-1.9116,4.18-1.86c5.2,0,10.4,0,15.59,0
			c3.2278-0.1495,6.3533,1.1528,8.52,3.55c3.93,4.31,8.27,8.24,12.29,12.47c1.5231,1.6678,3.7574,2.4982,6,2.23
			c1.235,0.0729,2.2952-0.8691,2.3682-2.1041c0.0007-0.012,0.0013-0.0239,0.0018-0.0359c2-10.92,4.12-21.84,6.16-32.76
			c1.47-7.85,2.91-15.72,4.44-23.56c0.4761-1.9685-0.0729-4.0443-1.46-5.52c-1.62-1.87-3.07-3.89-4.63-5.81
			c-1.38-1.69-1.2-3,0.21-4.6c3.75-4.25,7.58-8.43,11.37-12.66c3.36-3.74,6.69-7.52,10.16-11.16c1.0443-1.056,1.3305-2.6461,0.72-4
			c-1-2.88-1.9-5.77-2.89-8.65c-0.5119-1.4358-0.5884-2.9908-0.22-4.47c3.09-12.58,6.38-25.1,9.36-37.71
			C399.5471,382.2056,399.8887,381.5333,400.44,381.06z"/>
		<path class="st5" d="M313,767.52c1.8716-0.8785,3.6591-1.9261,5.34-3.13c8-4.96,15.98-9.96,23.94-15
			c0.7797-0.5421,1.77-0.683,2.67-0.38c9.14,2.51,18.3,5,27.45,7.43l0.69,0.2c6,1.77,5.95,1.73,11.48-0.94s11.09-5.31,16.69-7.86
			c2.1371-0.9228,3.9804-2.4134,5.33-4.31c0.55-0.79,1-1.06,2-0.69s1.85,0.49,2.76,0.78c10.86,3.5,21.7167,7,32.57,10.5
			c5.93,1.91,11.84,3.83,17.8,5.61c1.5403,0.4103,2.8298,1.463,3.54,2.89c1.05,2,2.12,3.94,3.19,5.9l12.21,22.53
			c1.07,2,1.08,2-0.32,3.8l-9.51,12.28c-0.4464,0.6006-1.0975,1.0168-1.83,1.1699c-6,1.54-12,3.1234-18,4.75
			c-1.4747,0.2972-3,0.2251-4.44-0.21c-7.46-1.6334-14.92-3.27-22.38-4.91c-0.694-0.2239-1.4547-0.0641-2,0.42
			c-2.39,2.1-4.83,4.15-7.22,6.27c-3.39,3-6.8,6-10.29,8.93c-3.18,2.65-6.21,5.49-9.31,8.24c-1.26,1.11-2.53,2.19-3.79,3.29
			c-0.929,0.679-2.1428,0.8303-3.21,0.4c-2.34-0.61-4.78-0.07-7.11-0.77c-1-0.29-1.86,0.33-2.69,0.82c-5.15,3-10.28,6.12-15.44,9.14
			c-0.9033,0.6558-1.651,1.5025-2.19,2.48c-5.75,7.94-11.43,15.94-17.12,23.92c-0.19,0.26-0.37,0.52-0.54,0.79
			c-1,1.64-2.12,2.14-4.28,1.86c-2.81-0.37-5.7-0.56-8.56-0.73c-2.9405-0.0698-5.8733-0.3304-8.78-0.78c-1.89-0.36-3.82,0-5.73-0.31
			c-3.11-0.48-5.69-2.09-8.28-3.61c-2.0877-1.3365-4.5213-2.0319-7-2c-7.35,0.15-14.72-0.15-22.07,0.14
			c-7,0.28-14.05,0.39-21.07,0.39c-0.8844-0.0328-1.7366,0.3345-2.32,1c-0.88,0.93-1.88,1.75-2.69,2.74
			c-3.87,4.7-8.48,8.69-12.66,13.1c-1.2896,1.1932-2.4708,2.4983-3.53,3.9c-0.5887,1.0977-1.9367,1.5381-3.06,1
			c-3.63-1.21-7.33-2.17-11-3.23c-1.1555-0.3411-2.3904-0.299-3.52,0.12c-9.1,3.2133-18.21,6.4033-27.33,9.57
			c-4.9,1.71-9.83,3.34-14.72,5.07c-0.8085,0.3382-1.728,0.2828-2.49-0.15c-5.6867-3.08-11.38-6.1467-17.08-9.2l-9.52-5.08
			c-1.65-0.88-1.75-1.19-1.49-3c0.65-4.48,1.22-9,1.84-13.45c0.76-5.43,1.57-10.85,2.3-16.28c0.56-4.18,1.06-8.36,1.54-12.55
			c0.5717-4.2612,1.529-8.4618,2.86-12.55c0.3231-0.9012,0.515-1.8442,0.57-2.8c0.6872-0.4309,1.5317-0.53,2.3-0.27
			c3.56,0.52,7.13,0.94,10.64,1.73c2.18,0.49,4.32,0,6.44-0.19c8.35-0.71,16.69-1.46,25-2.14s16.87-1.42,25.3-2.13
			c4.77-0.4,9.55-0.73,14.31-1.23c1.28-0.13,2.55-0.17,3.83-0.18c1.4717-0.1622,2.8792,0.6467,3.48,2c0.71,1.58,1.8,2,3.49,1.57
			c17.66-4.52,35.32-9,52.95-13.62c1.3095-0.3859,2.4887-1.1225,3.41-2.13c2.38-2.37,4.67-4.83,7.15-7.09
			c1.6932-1.4974,2.4561-3.7861,2-6c-1.04-8.48-1.9833-16.9733-2.83-25.48C312.68,769.05,312.42,768.24,313,767.52z"/>
		<path class="st6" d="M400.44,381.06c-0.91,5.19-2.4,10.25-3.65,15.37c-2,8.2933-4.06,16.58-6.18,24.86
			c-0.2715,0.9877-0.2331,2.0349,0.11,3c1.09,3.09,2,6.25,3.18,9.3c0.7455,1.5397,0.3826,3.3868-0.89,4.53
			c-7.39,8.08-14.7,16.23-22,24.36c-1.14,1.25-1.15,1.28-0.06,2.7c2,2.66,4.08,5.34,6.2,7.94c0.6794,0.7933,0.9362,1.8649,0.69,2.88
			c-2,10.4267-3.9733,20.8534-5.92,31.28c-1.7,9.02-3.39,18.04-5.07,27.06c-0.4,2.19-0.38,2-2.54,2.27
			c-3.23,0.38-5.52-0.73-7.72-3.13c-4.21-4.59-8.79-8.86-13.16-13.3c-0.8507-0.9482-2.0473-1.5141-3.32-1.57
			c-6.55-0.43-13.11-0.2-19.66-0.4c-0.8827,0.0164-1.7011,0.4648-2.19,1.2c-4.42,4.84-8.93,9.61-13.28,14.51
			c-1.0742,1.2935-2.7719,1.8927-4.42,1.56c-4.84-0.53-9.69-0.91-14.54-1.33c-0.7072-0.1528-1.4423-0.1149-2.13,0.11
			c-2,1.07-4,0.82-6.09,0.86c-10.39,0.2-20.79,0.33-31.18,0.62c-3,0.09-5.9,0.23-8.86,0.33
			c-0.9387,0.2056-1.8664-0.3887-2.072-1.3274c-0.0204-0.093-0.0331-0.1875-0.038-0.2826c-2.12-9-4.34-18-6.52-27
			c-0.0939-0.552-0.1473-1.1102-0.16-1.67c4.67-7.17,9.31-14.36,14-21.49c0.7477-0.9303,0.8044-2.2385,0.14-3.23
			c-6.26-11.79-12.45-23.62-18.72-35.41c-0.8652-1.4133-0.9884-3.1593-0.33-4.68c3.09-8,6.06-16.16,9-24.28
			c0.7701-1.9255,1.8699-3.7021,3.25-5.25c0.4078-0.6569,1.2709-0.8589,1.9278-0.451c0.0494,0.0307,0.0969,0.0645,0.1422,0.101
			c1.81,1,3.67,1.95,5.51,2.91c20,10.44,39.9767,20.89,59.93,31.35c1.3543,0.799,3.0357,0.799,4.39,0c2.9-1.34,4.22-3.35,4.79-6.45
			c1.12-6.05,2.64-12,4-18c1.61-2.39,4.17-3.67,6.4-5.29c6.19-4.5,12.24-9.21,18.44-13.7c2.83-2.05,4.39-5.25,6.41-8
			c6.42-8.75,12.9-17.46,19-26.41c1.66-2.44,3.8-1.77,5.84-2.23c4.39-0.11,8.79-0.17,13.18-0.37c1.3-0.06,1.85,0.72,2.5,1.53
			L400.44,381.06z"/>
		<path class="st7" d="M229.94,256.35c0.11-4.37,1.15-8.63,1.74-12.94c0.44-3.21,1-6.4,1.58-9.6c0.13-0.74-0.31-1.17-0.71-1.67
			c-3.42-4.2667-6.8367-8.5433-10.25-12.83c0.6172-2.3109,1.4613-4.5551,2.52-6.7c3.14-6.88,6.35-13.73,9.53-20.6
			c1.81-3.18,4.65-5.47,7.3-7.82c5-4.47,9.58-9.41,14.41-14.06c0.9941-1.0446,2.1086-1.9677,3.32-2.75c3.77-1.52,7.84-1.31,11.76-2
			c2.59-0.43,5.21-0.77,7.84-1c1.3315,0.0018,2.4308-1.0403,2.5-2.37c0.56-2.74,1-5.5,1.53-8.25
			c0.2774-1.6752,1.3253-3.123,2.83-3.91c12.27-7,24.6-13.94,36.84-21c1.1575-0.7357,2.5993-0.8661,3.87-0.35
			c10.95,4,21.93,7.93,32.86,12c0.8708,0.1772,1.6363,0.6911,2.13,1.43c0.42,2.49,2.32,3.59,4.32,4.56
			c1.0316,0.3629,1.8628,1.1433,2.29,2.15c2.4267,12.8533,4.86,25.7033,7.3,38.55c1.88,9.9467,3.75,19.8967,5.61,29.85
			c0.1,0.55,0.16,1.11,0.24,1.66c0.59,1.79-0.65,2-1.91,2.21c-6.09,0.91-12.22,1.51-18.31,2.37c-5.07,0.72-10.15,1.28-15.23,1.93
			c-0.9608,0.0527-1.8959,0.3301-2.73,0.81c-3.18,2.16-6.22,4.5-9.23,6.89c-0.8588,0.7389-1.3639,1.8074-1.39,2.94
			c-0.59,6-0.62,12-0.87,18c-0.2,4.86-0.74,9.72-0.6,14.6c0.1041,1.0421-0.2626,2.0763-1,2.82l-18,35.88
			c-0.1731,0.5493-0.6569,0.9427-1.23,1c-6.61,1.41-12.84,4.08-19.35,5.86c-0.972,0.3763-2.0553,0.3401-3-0.1
			c-4.47-0.09-8.88-0.86-13.32-1.23c-0.3873-0.0912-0.7824-0.1448-1.18-0.16c-2.79,0.27-4.41-1.11-6-3.34
			c-12.27-17.21-24.69-34.31-37.05-51.45C230.56,257.28,230.25,256.81,229.94,256.35z"/>
		<path class="st6" d="M313,767.52c0.8,3.91,1,7.91,1.47,11.86c0.67,5.3,1.22,10.61,1.82,15.92c0.09,0.79,0.07,1.6,0.19,2.39
			c0.1202,0.9616-0.2565,1.9184-1,2.54c-3.18,3.1467-6.3367,6.3167-9.47,9.51c-0.7371,0.7307-1.6664,1.2369-2.68,1.46
			c-17.78,4.5333-35.5567,9.0967-53.33,13.69c-0.54,0.13-1.1,0.21-1.63,0.39c-0.5503,0.2701-1.2154,0.043-1.4855-0.5073
			c-0.0257-0.0524-0.0473-0.1068-0.0645-0.1627c-0.0851-0.137-0.1587-0.2808-0.22-0.43c-0.72-2.82-2.63-3.25-5.25-3
			c-6.66,0.72-13.34,1.23-20,1.81c-4.37,0.38-8.74,0.71-13.12,1.08c-5.08,0.43-10.16,0.89-15.25,1.32l-12.88,1.06l-9.53,0.83
			c-0.4733,0.08-0.9567,0.08-1.43,0c-4.57-1.17-9.3-1.41-13.9-2.36c-2.35-1.87-2.5-4-1.64-6.89c3.34-11.2,6.38-22.49,9.53-33.74
			c0.12-0.46,0.19-0.94,0.29-1.4c0.1429-1.1851,0.5719-2.3176,1.25-3.3c3.25-4.92,6.31-10,9.63-14.86
			c1.1028-1.5765,1.4676-3.5538,1-5.42c-1.7733-8.6-3.49-17.2034-5.15-25.81c-0.22-1.14-1.06-2.48,0.4-3.48c2-1.13,4.08-2.16,6-3.42
			c1.2841-0.802,2.8305-1.0711,4.31-0.75c2.4245,0.4414,4.8774,0.7087,7.34,0.8c1.1949,0.2963,2.4394,0.3338,3.65,0.11
			c2.06,0.58,3.18-0.26,4.09-2.18c2-4.17,3.67-8.49,6.22-12.38c1.46-2.54,2.91-5.09,4.36-7.63c1.17-2.16,2.22-4.39,4-6.11
			c3.67-4.59,6.87-9.53,10.39-14.23c0.6408-1.0048,1.3849-1.9398,2.22-2.79c0.1841-0.1367,0.4359-0.1367,0.62,0v0.07
			c0.32,0.25,0.74,0.2,1.1,0.35L241.34,687c0.7698,0.2164,1.4214,0.7311,1.81,1.43c1.36,2.26,2.77,4.49,4.21,6.7
			c0.488,0.7319,0.6743,1.624,0.52,2.49c-0.78,5.69-1.5,11.39-2.25,17.09c-0.86,6.49-1.74,13-2.6,19.46
			c-0.1398,1.0328-0.037,2.0839,0.3,3.07c1.83,5.44,3.6,10.91,5.4,16.37c0.61,1.85,0.63,1.87,2.7,1.81c9.51-0.27,19-0.54,28.52-0.88
			c1.9119-0.0741,3.8149,0.2955,5.56,1.08C294.65,759.64,303.82,763.57,313,767.52z"/>
		<path class="st8" d="M496.43,423.79c0.4704-0.7576,1.0616-1.4332,1.75-2c5-5.05,10.19-9.94,15-15.18c4.55-4.95,9.44-9.55,14-14.43
			c0.9947-1.0402,2.3812-1.6136,3.82-1.58c2.8716-0.104,5.723,0.5185,8.29,1.81c6.82,3.12,13.66,6.19,20.5,9.27l14.2,6.37
			c1.22,0.6035,2.5694,0.8987,3.93,0.86c3.28-0.19,6.5,0.64,9.79,0.52c1.8318-0.0236,3.6557-0.2448,5.44-0.66
			c2-0.5,4.06-0.83,6-1.42c1.3-0.39,1.68,0,1.93,1.24c0.54,2.58,1.21,5.13,3.16,7.1c1.29,1.3,2.49,2.69,3.68,4.08
			c3,3.52,6.19,6.87,9.26,10.34c4.38,4.95,8.7,10,13.09,14.91c2.43,2.74,4.79,5.56,7.32,8.2c2.27,2.36,3.7,5.18,5.39,7.88
			c0.55,0.87,1.12,1.73,1.69,2.6c0,0.88,0.09,1.76,0.09,2.64c0,18,0,35.98,0,53.94c0,0.48,0,1,0,1.43
			c-1.26-0.47-2.55-0.87-3.77-1.44c-4.18-2-8.33-4-12.5-6c-4.61-2.18-9.24-4.31-13.85-6.47c-0.564-0.2771-1.2034-0.3614-1.82-0.24
			c-1.3052,0.3688-2.6462,0.5967-4,0.68c-1.5974-2.381-3.3478-4.6558-5.24-6.81c-3.44-4.38-7.18-8.54-10.4-13.08
			c-1.85-2.61-4.16-3.38-7-3.64c-5.14-0.46-10.27-1.08-15.38-1.81c-3.22-0.45-6.47-0.7-9.71-1.08c-3.39-0.4-6.77-0.85-10.16-1.26
			c-0.87-0.11-1.75-0.1-2.62-0.2c-1.56-0.19-1.84-0.55-2-2.13c-0.21-2.93-0.58-5.86-0.52-8.82
			c-0.0068-1.8462-0.6575-3.6322-1.84-5.05c-4.9-6.48-9.81-12.94-14.57-19.52c-1.7191-2.4958-3.2788-5.0977-4.67-7.79
			c-0.5449-1.0642-1.4531-1.8979-2.56-2.35c-5.5867-2.34-11.1667-4.7-16.74-7.08C502.43,426.38,499.43,425.08,496.43,423.79z"/>
		<path class="st3" d="M41.93,620.1c-0.0015-1.0333-0.4029-2.026-1.12-2.77c-3.13-3.5-6.15-7.11-9.26-10.63
			c-0.74-0.84-0.65-1.28,0.33-1.78c2.48-1.27,4.92-2.63,7.4-3.91c5.67-2.94,11.36-5.83,17-8.79
			c10.26-5.3333,20.51-10.6967,30.75-16.09c6.5-3.41,13-6.9,19.52-10.18c1.7471-0.655,2.8094-2.4309,2.56-4.28
			c-0.07-1.79-0.47-3.66,0.35-5.41c0,2,0.1,4,0,6c-0.0644,1.914,0.2552,3.8215,0.94,5.61c4.79,13,9.53,26,14.32,39.06
			c1.54,4.19,1.56,4.16-0.31,8.33c-1.14,2.54-2.28,5.09-3.29,7.7c-0.3851,1.0493-1.1337,1.9257-2.11,2.47
			c-4.46,2.64-8.93,5.25-13.34,8c-0.9408,0.6129-2.1022,0.7845-3.18,0.47L52,621.33c-2.62-0.65-5.26-1.28-7.86-2
			C43.3144,618.9983,42.3707,619.3271,41.93,620.1z"/>
		<path class="st2" d="M373.08,365.29c-0.29,0.12-0.61,0.38-0.86,0.33c-2.26-0.44-3.48,0.88-4.65,2.51
			c-5.51,7.7-11.07,15.37-16.61,23.05c-2.14,3-4.29,5.93-6.41,8.91c-1.47,2.08-3.72,3.23-5.67,4.71
			c-6.79,5.2-13.64,10.2-20.48,15.27c-0.4648,0.3082-0.9455,0.5919-1.44,0.85c-2.15-3.37-3.87-7-5.84-10.46
			c-0.75-4.71,0.28-9.38,0.49-14.06c0.25-5.58,0.81-11.13,1.18-16.7c0.54-8.19,1.18-16.38,1.74-24.57
			c0.38-5.57,0.8-11.14,1.16-16.71c0.48-7.48,1.08-14.95,1.58-22.43c-0.0582-1.1316,0.3296-2.241,1.08-3.09
			c2.5114,1.0075,4.9534,2.1801,7.31,3.51c0.6759,0.4261,1.2716,0.9677,1.76,1.6c5.2667,5.88,10.5267,11.7633,15.78,17.65
			c7.26,8.1599,14.5267,16.3233,21.8,24.49c1.22,1.37,2.46,2.72,3.66,4.11c0.4861,0.644,1.2653,0.9978,2.07,0.94
			C371.48,365.16,372.28,365.25,373.08,365.29z"/>
		<path class="st2" d="M330,271.28c0.168-0.5295,0.2754-1.0763,0.32-1.63c-0.11-3.68,0.47-7.33,0.47-11
			c0-5.75,0.67-11.47,0.63-17.22c0-2.12,0.44-4.27,0.37-6.43c-0.0464-0.8136,0.332-1.5932,1-2.06
			c3.4267-2.6,6.8633-5.1867,10.31-7.76c0.5403-0.3537,1.165-0.5574,1.81-0.59c6.16-0.65,12.31-1.45,18.44-2.34
			c5.51-0.79,11.05-1.38,16.58-2c1.09-0.12,1.31-0.67,1.39-1.53c0.49,0.58,0.49,1.49,1.44,1.78s1.26,1.2,1.78,1.89
			c4.25,5.49,8.43,11,12.72,16.5c1.0588,1.1934,1.3776,2.8715,0.83,4.37c-2.29,7.72-4.42,15.49-6.63,23.23
			c-0.64,2.24-0.67,2.18-2.88,2.3c-9.09,0.5-18.19,0.66-27.28,1c-4.54,0.19-9.11,0-13.63,0.47
			C341.76,270.89,335.82,270.19,330,271.28z"/>
		<path class="st6" d="M318.35,312.9c-0.47,5.62-1,11.25-1.39,16.88c-0.16,2.22-0.37,4.45-0.43,6.66c-0.09,3.52-0.41,7-0.68,10.5
			c-0.43,5.39-0.56,10.8-1.25,16.17c-0.31,2.37-0.33,4.78-0.44,7.15c-0.18,3.5-0.54,7-0.69,10.5c-0.23,5.47-1,10.93-1.24,16.41
			c-0.15,3.42-0.68,6.82-0.62,10.26c0.0996,1.0256-0.0692,2.0594-0.49,3c-5.58-5-10.86-10.36-16.27-15.56
			c-5.64-5.43-11.23-10.9-16.9-16.3c-0.9312-0.726-1.3272-1.9454-1-3.08c2.74-13.52,5.36-27.07,8-40.6
			c1.24-6.34,2.4833-12.6733,3.73-19c0.14-0.7,0.48-1.4-0.23-2c2.89-0.23,5.53-1.44,8.28-2.23c4-1.14,7.9-2.43,11.82-3.77
			c1.14-0.39,2.43,0,3.47-0.75c1.69,2,4,3.43,5.85,5.28l0.49,0.46L318.35,312.9z"/>
		<path class="st5" d="M170.55,730.06c-0.5,0.86-0.12,1.74,0,2.57c1.78,9.08,3.58,18.16,5.46,27.22
			c0.409,1.6263,0.0876,3.3503-0.88,4.72c-3.55,5.32-7,10.73-10.43,16.11c-0.47,0.73-0.9,1.5-1.34,2.25
			c-0.1638-0.7948-0.6074-1.5045-1.25-2c-7.24-7.1-14-14.71-21.28-21.77c-2.58-2.5-5.2-5-7.61-7.65c-6.31-7-13.24-13.42-19.75-20.25
			c-1.47-1.55-2.83-3.23-4.36-4.75c-0.5771-0.4454-0.684-1.2743-0.2386-1.8514c0.069-0.0894,0.1492-0.1696,0.2386-0.2386
			c1.116-1.3552,2.643-2.3099,4.35-2.72c4-0.82,7.89-1.92,11.81-3c1.1542-0.3251,2.3758-0.3251,3.53,0
			c7.0467,2,14.1,3.98,21.16,5.94c5.91,1.65,11.83,3.27,17.72,5C168.6158,729.897,169.5797,730.0381,170.55,730.06z"/>
		<path class="st9" d="M210.81,698.82c-1.59,1.81-2.48,4.13-4.29,5.79c-0.12-0.71,0.49-1.23,0.49-1.9
			c3.23-6.83,6.89-13.44,10.42-20.11c0.5-1,0.73-2.17,2-2.47c0.1396,0.0148,0.2804,0.0148,0.42,0c0.29,0.24,0.71,0.16,1,0.39
			s0.76,0.13,1,0.52c0.41,1-0.17,1.71-0.65,2.4C217.74,688.56,214.31,693.71,210.81,698.82z"/>
		<path class="st10" d="M219.47,680.13c-1.05,1.93-2.12,3.86-3.15,5.8c-2.7267,5.1-5.4467,10.2033-8.16,15.31
			c-0.2173,0.5998-0.6201,1.1147-1.15,1.47c0.7527-2.4986,1.7197-4.9276,2.89-7.26c2-4.79,4.25-9.51,6.37-14.27
			C217.19,679.1,217.17,679.09,219.47,680.13z"/>
		<path class="st11" d="M210.81,698.82c0.4967-1.3392,1.191-2.5964,2.06-3.73c2.59-3.91,5-7.93,7.77-11.72
			c0.4707-0.7396,0.882-1.5154,1.23-2.32c0.1548-0.0032,0.3095,0.0136,0.46,0.05c0.26,0.32,0.85,0,1,0.54
			c-1.2072,2.0333-2.5432,3.9873-4,5.85c-2.36,3.37-4.78,6.7-7.17,10C211.8521,698.0576,211.3821,698.5206,210.81,698.82z"/>
		<path class="st12" d="M202.16,712.24c-0.39,2.06-1.62,3.77-2.4,5.67c-1.07,2.64-2.38,5.19-3.63,7.75
			c-1.08,2.22-1.39,2.31-4.09,1.55c3.12-4.36,5.69-9.08,8.73-13.5C201.34,713.32,201.42,712.47,202.16,712.24z"/>
		<path class="st13" d="M200.77,713.71c-0.71,2.4-2.42,4.25-3.53,6.43c-0.93,1.83-2.1,3.53-3.1,5.33
			c-0.371,0.8903-1.1563,1.541-2.1,1.74c-1.28-0.14-2.63,0.15-3.84-0.52c2.51,0.49,3.89-0.84,5.15-2.83
			c2.09-3.28,4.42-6.41,6.67-9.58C200.2421,714.0558,200.4946,713.864,200.77,713.71z"/>
		<path class="st8" d="M494,424.19c0.3888-0.378,0.9569-0.5055,1.47-0.33C495.0812,424.238,494.5131,424.3655,494,424.19z"/>
		<path class="st9" d="M223.35,681.64c-0.3859-0.0583-0.7395-0.2493-1-0.54c0.5269-0.1592,1.0982,0.0051,1.46,0.42
			C223.6671,681.5928,223.5102,681.6337,223.35,681.64z"/>
		<path class="st10" d="M220.9,680.53c-0.3808,0.0751-0.7706-0.077-1-0.39C220.2808,680.0649,220.6706,680.217,220.9,680.53z"/>
		<path class="st11" d="M224.87,681.94c-0.4038,0.1281-0.8445-0.0121-1.1-0.35C224.1738,681.4619,224.6145,681.6021,224.87,681.94z"
			/>
		<path class="st2" d="M318.35,312.9c-0.2474-0.0274-0.4471-0.2148-0.49-0.46C318.1138,312.453,318.321,312.6475,318.35,312.9z"/>
		<path class="st2" d="M361.54,142L333,131.61c-2.32-0.85-4.67-1.62-6.95-2.57c-0.8654-0.4199-1.8882-0.3514-2.69,0.18
			c-12.46,7.12-24.9133,14.23-37.36,21.33c-1.2421,0.5689-2.0983,1.7435-2.26,3.1c-0.46,3.22-1.27,6.39-1.79,9.6
			c-0.0591,1.0198-0.9297,1.8011-1.95,1.75c-4.34,0.51-8.7,0.89-13,1.54c-2.57,0.39-5.26,0.21-7.7,1.4
			c-11.09-10.37-22.4-20.52-33.6-30.77c1.59-1.58,2-3.78,2.76-5.74c2.77-6.87,5.39-13.81,8.08-20.71c1.21-3.12,2.43-6.24,3.69-9.34
			c0.71-1.72,1-1.86,2.65-1.54c2.57,0.5,5.13,1.07,7.71,1.58l16.13,3.1c1.119,0.1623,2.2584-0.0941,3.2-0.72
			c6-3.38,11.97-6.7533,17.91-10.12c3.27-1.84,6.54-3.66,9.86-5.41c1.3879-0.656,2.5578-1.6974,3.37-3
			c0.7335-1.2523,2.1002-1.9953,3.55-1.93c3.23-0.24,6.45-0.83,9.67-1.24c3.07-0.39,6.15-0.73,9.22-1.11
			c3.31-0.41,6.61-0.86,9.92-1.27c3.15-0.39,6.3-0.74,9.45-1.13s6.46-0.83,9.68-1.25c1.73-0.22,3.46-0.45,5.2-0.66
			c1.6136-0.1859,3.2337,0.2904,4.49,1.32c2.38,1.74,4.87,3.34,7.37,4.91c0.7888,0.4263,1.1975,1.3254,1,2.2
			c-0.81,5.09-1.65,10.19-2.47,15.28c-0.77,4.78-1.52,9.56-2.29,14.33c-0.53,3.29-1.1,6.58-1.62,9.87
			c-0.75,4.78-1.5,9.56-2.22,14.35C361.6933,139.9289,361.5347,140.9616,361.54,142z"/>
		<path class="st4" d="M270.66,20.43c-1.7712,1.7246-3.6847,3.2968-5.72,4.7c-3,2.36-6.12,4.58-9.15,6.9
			c-0.8829,0.8265-2.1591,1.0787-3.29,0.65c-3.09-1.06-6.24-1.91-9.36-2.88c-7.31-2.26-14.62-4.49-21.9-6.83
			c-1.0923-0.4937-2.378-0.2317-3.19,0.65c-3.7,3.38-7.53,6.62-11.29,9.94c-3.17,2.8-6.27,5.66-9.46,8.43
			c-1.5,1.31-3.06,2.55-4.46,4c-0.626,0.6312-1.5527,0.859-2.4,0.59c-3.57-0.78-7.16-1.47-10.74-2.19c-1.32-0.26-2.65-0.54-4-0.76
			c-0.9635-0.1175-1.7966-0.7272-2.2-1.61c-2.49-4.73-5-9.44-7.54-14.16c-1.17-2.18-2.37-4.34-3.5-6.54
			c-0.4412-0.8397-1.143-1.5134-2-1.92c-5-2.55-9.91-5.18-14.92-7.65c-1.5388-0.6787-2.8111-1.8455-3.62-3.32
			c-1.27-2.38-2.52-4.76-3.77-7.13c0.68-0.59,1.34-0.37,1.94-0.37c36.06,0,72.1167,0,108.17,0c1.413-0.0764,2.7857,0.4852,3.74,1.53
			c4.56,4.82,9.72,9,14.32,13.8C267.68,17.67,269.48,18.65,270.66,20.43z"/>
		<path class="st4" d="M525.28,50.58L494.59,1.05h71c0.15,0.82-0.65,1.14-1.09,1.59c-4.66,4.7-9.72,9-14.29,13.8
			c-1.13,1.18-2.22,2.25-2,4.1c-0.0322,0.8869-0.4088,1.7264-1.05,2.34c-5.5,7.22-10.95,14.47-16.49,21.65
			c-1.16,1.51-2.35,3-3.51,4.52C526.7478,49.7781,526.0766,50.3243,525.28,50.58z"/>
		<path class="st0" d="M225.72,137.19c1.25,0,2,0.95,2.78,1.7c6.5667,6,13.1367,12.04,19.71,18.12c3.23,3,6.5,5.89,9.73,8.85
			c0.62,0.57,1.48,1,1.38,2.1l-23.21,22.44c-0.57,0.55-1.17,1.07-1.76,1.61c-0.5499-0.5698-0.9696-1.2522-1.23-2
			c-6.9-13.78-13.7867-27.5567-20.66-41.33c-0.08-0.14-0.14-0.29-0.22-0.43c-0.85-1.69-1.35-1.71,0.94-3.11
			c3.06-1.88,6.09-3.79,9.13-5.71C223.46,138.69,224.58,137.93,225.72,137.19z"/>
	</g>
</g>
</svg>
