<svg xmlns="http://www.w3.org/2000/svg" viewBox="0 0 645.34 962.97"><defs><style>.cls-1{fill:#231624;}.cls-2{fill:#868c56;}.cls-3{fill:#8c754b;}.cls-4{fill:#6a3b37;}.cls-5{fill:#5e7551;}.cls-6{fill:#584735;}.cls-7{fill:#caa15c;}.cls-8{fill:#c9a554;}.cls-9{fill:#495644;}.cls-10{fill:#79604c;}.cls-11{fill:#372a30;}.cls-12{fill:#a88657;}.cls-13{fill:#7a614b;}.cls-14{fill:#3e3033;}</style></defs><g id="Layer_2" data-name="Layer 2"><g id="Layer_1-2" data-name="Layer 1"><path class="cls-1" d="M644.85,906.76c.44,12.86.3,25.73.34,38.59,0,3.12.17,6.23.15,9.35-.05,6-2.05,8-8,8.25-.64,0-1.28,0-1.92,0-25.76,0-51.52,0-77.27,0-151.57-.37-303.15-.12-454.72-.1q-47,0-94,.12a16.83,16.83,0,0,1-5.19-.67,4.83,4.83,0,0,1-3.52-3.86,21.68,21.68,0,0,1-.53-4.26c0-6.24-.06-12.48,0-18.72C.84,889.31.25,843.17.46,797a10.42,10.42,0,0,1,.17-3.1c.89-1.32,2.32-1.92,3.61-2.7a2.91,2.91,0,0,0,1.55-2.94c-.32-8.12-1.3-16.2-1.63-24.32a8.48,8.48,0,0,0-1.47-4.25,19.69,19.69,0,0,1-2.06-4.29,17.81,17.81,0,0,1-.17-4.06c0-5.5,0-11,0-16.52A10.57,10.57,0,0,1,.63,732a15.52,15.52,0,0,1,1.85-3.33c2.53-3.79,5.24-7.47,7.71-11.29a9.23,9.23,0,0,1,4.14-3.5c7.18-3.16,14.28-6.47,21.43-9.67,1.79-.8,1.76-1.62.88-3.09-5-8.36-10-16.74-15.1-25.09a4.81,4.81,0,0,1-.28-5.12c6.1-12.86,12.33-25.66,18.42-38.52,1.56-3.3.77-6.78,1.55-10.1a13.58,13.58,0,0,1,.35-2.36,2.14,2.14,0,0,1,2.6-1.18c.79.14,1.56.35,2.34.54q27.09,6.78,54.19,13.48a7.67,7.67,0,0,0,6.57-1c3.47-2.27,7.09-4.32,10.66-6.44a7,7,0,0,0,3-3.34c1.21-2.79,2.3-5.62,3.62-8.35a6,6,0,0,0,.14-5.06c-4.16-11.16-8-22.42-12.3-33.53-2.32-6-4.15-12.06-3.45-18.61.07-6.15.08-12.31,0-18.47,0-2.31.77-3.82,2.92-4.65.74-.29,1.4-.81,2.16-1,6.06-1.81,10.1-6,13.76-10.95,5.19-7,10.75-13.72,16.18-20.54.25-.31.46-.71.8-.88,3.21-1.67,3.6-4.77,4.18-7.87,2.89-15.65,6.25-31.2,9.12-46.85a7.24,7.24,0,0,1,3.88-5.62c3.66-2,6.89-4.65,10.76-6.26a3.93,3.93,0,0,0,1.86-2.11c2.2-4.36,4.37-8.73,6.57-13.08,1-2.08,1-4.36,1.23-6.55.84-7.3,1.59-14.61,2.46-21.9a6.08,6.08,0,0,1,1.89-3.77c6.56-6.33,13.2-12.57,19.58-19.08,1.58-1.61,3.73-1.79,5.76-2.09a5,5,0,0,0,4.34-3.49c1.21-3.13,2.69-6.18,3.76-9.34,2.28-6.8,6.29-12.53,10.47-18.2,1.66-2.25,1.66-2.57-.15-4.79-11-13.48-22-27-33.13-40.44-3.1-3.75-3.2-3.77.54-6.87q14.76-12.24,29.61-24.4c.72-.6,1.38-1.39,2.5-1.17,2.79,2.46,4.56,5.73,6.71,8.68q16.1,22.13,32,44.37a6.37,6.37,0,0,0,5.09,2.88,142.14,142.14,0,0,1,15,1.73c1.27,1.18.54,2.56.29,3.82-2.9,14.57-5.66,29.17-8.62,43.72-.92,4.54-1.66,9.12-2.66,13.64a3.48,3.48,0,0,0,1.09,3.6c6.8,6.87,14,13.28,20.77,20.21,3.79,3.89,8,7.33,11.76,11.26a121.39,121.39,0,0,1,6,11c-.11,3.55-1.35,6.88-2.05,10.31-.66,3.21-1.45,6.4-2.17,9.59a7.06,7.06,0,0,1-10,4.81q-30.76-15.93-61.4-32.1l-.64-.33c-4-2.09-5.37-1.57-7.1,2.86s-3.27,8.85-4.92,13.26c-1.46,3.9-2.76,7.85-4.35,11.69a4.77,4.77,0,0,0,.2,4.35q8.4,15.9,16.78,31.81a3.38,3.38,0,0,0,.24.41c2.46,3.35,2.46,6.3-.19,9.88-3.9,5.24-7.24,10.92-10.8,16.42a5.73,5.73,0,0,1-2,2.32c-1.49.44-2.87-.14-4.21-.58-7.53-2.44-15.17-4.55-22.67-7.08-2.28-.78-4.44-.32-6.63-.05-6.11.75-12.21,1.54-18.32,2.25-1.71.2-2.63.68-2.36,2.69,2.43,17.58,4.82,35.17,7.31,52.75.38,2.69.6,3,3.39,2.76,8.12-.61,16.25-1.11,24.37-1.71,5.57-.41,11.15-.76,16.73-1.1,2.93-.18,3.26.14,4.05,2.94,2.33,8.23,4.75,16.44,6.94,24.71a5.4,5.4,0,0,0,4.59,4.42c7.8,1.77,15.55,3.75,23.28,5.79a18.24,18.24,0,0,0,7.81.35c8.76-1.42,17.55-2.71,26.32-4,4-.6,7.79.62,11.66,1,1.51.17,3,.45,4.5.74,1.72.33,2.69-.33,3.3-2,1.54-4.12,2.9-8.31,4.35-12.46,1.56-4.45,3.25-8.86,4.65-13.37a10,10,0,0,1,3.41-4.8c8.14-6.72,16.36-13.35,24.29-20.31,4-3.53,8.34-3.58,12.73-2,5.49,1.94,10.58,4.91,15.84,7.44,2.07,1,3.57.86,5.16-.68,4.65-4.5,9.47-8.83,14.22-13.23q12-11.16,24.11-22.3c2.94-2.7,6-5.29,8.76-8.18a10.35,10.35,0,0,1,5.55-3.1c2.27-.47,4.53-1,6.79-1.53,2.51-.58,3.1,0,2.78,2.49-1.18,9.52-2.45,19-3.69,28.54-.42,3.17-.72,6.35-1.25,9.51a11.64,11.64,0,0,0,.41,5.43q5.43,18,10.83,36.08a6.79,6.79,0,0,1,.66,3c-.46,2.68.91,4.56,2.41,6.48,2.37,3,4.64,6.12,6.92,9.21a4.42,4.42,0,0,0,3.87,2c12.71,0,25.41-.64,38.12-.6,4.27,0,8-2.57,11.94-4.14,1.17-.47.76-1.62.58-2.55q-1.89-10.14-3.85-20.27a91.88,91.88,0,0,1-1.81-9.67c-.47-5.53-3.55-9.84-6.32-14.31-3.16-5.11-6.27-10.23-9.45-15.32a12.78,12.78,0,0,1-1.8-4.91c-.6-3.88-1.39-7.72-2-11.6a6.63,6.63,0,0,0-3.36-4.89c-9.71-6.37-19.74-12.18-29.75-18-2.14-1.25-2.8-2.81-3-5.22-.74-10.07,1.5-19.7,3.84-29.35,1.47-6.06,2.78-12.16,4.23-18.23a4.82,4.82,0,0,0-1.5-5.13C460,426.6,452.87,418.44,445,411a14.77,14.77,0,0,1-3.67-6.64c-1-3.16-3-4.9-6-6.26-8.3-3.76-16.59-7.57-24.79-11.53-3.46-1.67-7.1-2.95-10.31-5.1-4.09-4.39-7.61-9.24-11.36-13.91a4.22,4.22,0,0,0-4.05-1.84c-3.81.3-7.66.09-11.49.11-2.85.32-4.81-.81-6.75-3-7.76-8.89-15.7-17.62-23.52-26.44-5.45-6.14-11-12.22-16.43-18.35-2.07-2.32-5.23-3-7.84-4.5a5,5,0,0,1-.6-.32c-.29-.16-.58-.34-.87-.52-1.46-1.16-2.8-2.47-4.27-3.63a2.72,2.72,0,0,1-1.26-2.14,8.56,8.56,0,0,1,1.06-2.65c5.16-10.34,10.36-20.67,15.52-31a4.91,4.91,0,0,1,1.75-2.5,22.34,22.34,0,0,1,5.92-.79c11.82,0,23.62-.73,35.42-1.11,5.49-.18,11,.11,16.5-.71a3.28,3.28,0,0,0,3.11-2.71c2-7.24,4-14.5,6.14-21.69a5,5,0,0,0-1-4.9c-4.17-5.36-8.28-10.77-12.4-16.17-1-1.32-2.67-2.11-3.11-3.88-2.21-10.33-3.92-20.75-5.92-31.11-2.25-11.62-4.39-23.27-6.6-34.9a21.09,21.09,0,0,1-.53-3.79c.06-1.17.85-1.57,1.84-1.89q32.15-10.47,64.22-21.19c3-1,5.12-.71,7.24,1.69s4.17,4.41,6.15,6.71a3.21,3.21,0,0,1,.75,3.3c-3.72,12.24-7.22,24.54-11.13,36.72-1.66,2.8-4.13,4.84-6.57,6.9s-2.64,2.5-1.39,5.48q10.08,24.12,19.94,48.33c1.28,3.15,2.92,5.57,6.22,6.74,1.42.51,2.7,1.41,4.09,2,2.16.89,2.62,2.47,2.39,4.64-1.06,10.16-1.88,20.35-2.83,30.52-.57,6.12-1,12.26-1.74,18.36a5.85,5.85,0,0,0,1.49,5.09,15.86,15.86,0,0,1,2.95,4.63c2.93,6.66,5.85,13.32,9,19.89,1.39,2.92,1.38,6.05,1.73,9.12a4.91,4.91,0,0,0,2,3.84c6.42,4.49,10,11.32,14.43,17.46a6.12,6.12,0,0,1,.88,3.67c.13,13,.58,26,.56,39.07,0,7.18.58,14.37.39,21.56-.08,2.84,1.88,1.85,3.29,2a6.15,6.15,0,0,0,1.86-.21,3.36,3.36,0,0,1,1.14,0c8.64,3.35,17.09,7.16,25.64,10.72a5.59,5.59,0,0,1,2.85,2.47c5.3,9.54,12.27,17.91,18.74,26.63a11.8,11.8,0,0,1,2.62,8,51.25,51.25,0,0,0,.47,6.44c.1,1.52.88,2,2.29,2.17,6.91.74,13.8,1.61,20.69,2.45l18.31,2.18a6.59,6.59,0,0,1,4.64,2.63Q600.43,496.54,608,506a4.6,4.6,0,0,1,1.16,2.33c-.82,3.65-2.9,6.72-4.59,10-4.11,7.87-8.29,15.7-12.38,23.58a4.31,4.31,0,0,0-.66,2.75c.53,3.23,1.16,6.45,1.92,9.64a4.55,4.55,0,0,0,2.17,2.46c7.8,5.59,15.58,11.22,23.45,16.7a11.06,11.06,0,0,1,4.78,6.57q3.39,12.87,7.09,25.67a4,4,0,0,1-1.25,4.28c-3.68,3.68-7.77,6.91-11.5,10.52a28.88,28.88,0,0,0-4,4.8q-11.36,17.09-22.75,34.15c-1.83,2.75-1.82,2.82.26,5.4.8,1,1.56,2,2.4,3a9.8,9.8,0,0,1,2.34,6.35c.22,5.1.65,10.2,1.19,15.28.36,3.35.08,6.71.19,10.07.33,9.59-.74,19.17-.5,28.76a6.29,6.29,0,0,1-.37,2.35,19.1,19.1,0,0,0,2,17.26c3.3,5.3,6.73,10.53,10.52,15.47,3,3.94,4.22,8.3,4.61,13.1.52,6.29,1.41,12.55,2.23,18.8a9.6,9.6,0,0,1-1.38,6.85q-6.33,9.77-12.52,19.61c-1.84,2.9-1.87,2.93,1.31,4.52,9.51,4.77,19,9.55,28.55,14.26,3.66,1.81,7.17,3.89,10.82,5.7A2.85,2.85,0,0,1,645,849c0,19.11,0,38.23,0,57.34A1.52,1.52,0,0,1,644.85,906.76Z"/><path class="cls-2" d="M436.4,174.18c1.15-4,2.26-8,3.45-12q3.7-12.39,7.49-24.75a2.54,2.54,0,0,0-.72-3c-2.46-2.39-4.87-4.85-7.16-7.41-1.25-1.4-2.42-1.59-4.2-1q-31.45,10.52-63,20.87a9.54,9.54,0,0,1-3.24.81c-.62,0-.78.43-.9.91-1.74-.92-3.32-2.1-5-3.11-1.43-.85-1.82-2.33-2.13-3.84,1-8.58,2.61-17.06,3.92-25.59,1.52-9.87,3.15-19.73,4.74-29.6.29-1.84-.12-3.08-1.75-4a15.11,15.11,0,0,1-2.79-1.87c-3.38-3-7.15-3.45-11.57-2.82-16.14,2.31-32.34,4.12-48.51,6.17a4.87,4.87,0,0,0-3.65,2,8.65,8.65,0,0,1-2.85,2.53q-14,7.81-28,15.69a6.9,6.9,0,0,1-4.86.74c-7.07-1.31-14.13-2.72-21.2-4.06-3-.57-3.12-.51-4.25,2.35q-6,15.28-12,30.6a8.2,8.2,0,0,1-1.95,3.53c-3.76,2.83-7.9,5.09-11.86,7.62-2.26,1.44-2.33,1.57-1.14,4q10,20,20,40a11.29,11.29,0,0,1,1.31,3.07c-.82,3.62-2.85,6.72-4.28,10.08-2.33,5.5-5.18,10.76-7.22,16.39a2.2,2.2,0,0,1-.69,1c-2.51.66-4.93-.21-7.28-.74a12.2,12.2,0,0,0-8.92,1.33c-9.89,5.25-20.13,9.77-30.11,14.84a7.59,7.59,0,0,0-3.81,4c-2.14,5-4.56,9.86-6.82,14.8-1.22,2.67-1.87,2.84-4.39,1.34Q137,240.71,112.94,226.24c-2.13-1.28-3.36-3.39-4.82-5.27a3.82,3.82,0,0,0-4.12-1.56c-6.33,1-12.06,3.72-17.89,6.09a17,17,0,0,1-11.79.84c-9.76-2.77-19.61-5.26-29.47-7.66a6.05,6.05,0,0,1-4.15-3c-2.92-5.41-8.39-7.4-13.32-10.12-1.65-.91-3.3-.21-4.88.29-5.86,1.88-11.67,3.91-17.53,5.79-1.39.44-2.8,1.32-4.36.45,0-1-.1-1.91-.1-2.86q0-92.31,0-184.6c0-.87.05-1.75.09-2.63.9-.29,1.54.28,2.16.74,2,1.48,4.05,2.87,6.14,4.19,3.16,2,5.47,4.84,8,7.5C20.46,38.2,24.58,41,30.22,39.8a18.28,18.28,0,0,1,4.51-.53c3.79.2,6.24-1.71,8.49-4.44C48,29,53.41,23.58,58.11,17.61A5.09,5.09,0,0,1,61,16.09C70,13.56,78.9,11.14,87.86,8.75A25,25,0,0,0,97.19,4.1c1.29-1,2.63-2,4-3-.71.69-1.61.42-2.41.42-7.91,0-15.83.05-23.74,0-1,0-2.32.52-2.85-1,2.48,0,5-.06,7.44-.06q30.58,0,61.18,0Q194,.46,247.3.46q27.82,0,55.66.07a.9.9,0,0,1,.22.68c-.44,2.69-1.05,5.33-1.56,8-.63,3.36.69,5.7,4,6.86,2.78,1,5.58,2,8.38,2.91q14.63,5,29.22,10.14a4.69,4.69,0,0,0,4.89-.72c2.86-2.18,5.79-4.26,8.72-6.35a7.06,7.06,0,0,1,2.68-1.54c4.81-.48,9.58.28,14.33.68,2.86.24,5.08-.19,7.08-2.4,4-4.45,8.17-8.76,12.39-13a10.2,10.2,0,0,1,6.52-3.08c5.37-.57,10.7-1.4,15-1.52-6.62.74-14.37.38-22.1.42-8.95,0-17.91,0-26.86,0a8.08,8.08,0,0,1-3.55-.37L362,.94c0-.14,0-.28.07-.42.88,0,1.76-.06,2.63-.06q31.07,0,62.13,0,68.24,0,136.47,0c13.19,0,26.39.17,39.57-.19C611.23,0,619.61.17,628,0a22.74,22.74,0,0,1,5.7.43c1.23,1.15,1.56,2.77,2.09,4.25,1.2,3.3,2.49,6.58,3.87,9.8a10.46,10.46,0,0,0,5.47,5.65c0,1.52,0,3,0,4.55V285q0,88.43,0,176.84,0,28.8.05,57.59c0,.87-.07,1.75-.11,2.63-.61,0-.75-.47-.92-.92a8.22,8.22,0,0,1-.21-2.37c0-18.22,0-36.44,0-54.66a36.81,36.81,0,0,0,.07-4.07V292.38a11.52,11.52,0,0,1,0-1.44c.27-2-.66-2.79-2.65-3.05-14.9-1.91-29.78-4-44.68-6-3.41-.45-6.86-.56-9.41-3.46-1.13-1.29-2.7-.61-4.05-.1-6.13,2.32-12.29,4.58-18.44,6.85q-9.68,3.56-19.35,7.14c-2.77,1-3.53.82-5.42-1.45-3-3.63-6-7.25-9-10.89a14.07,14.07,0,0,1-2.93-6c-1.22-5.38-2.56-10.73-3.82-16.1a7.46,7.46,0,0,0-2.72-4.34q-14.2-11.43-28.34-22.94c-2.86-2.32-3-2.42-1.8-5.86a6.57,6.57,0,0,0-.76-6.11c-5-7.89-9.87-15.9-14.69-23.92a11.85,11.85,0,0,0-6.14-5c-10.44-4.27-20.79-8.75-31.17-13.16C437.62,176.19,436,176.09,436.4,174.18Z"/><path class="cls-3" d="M.61,212.12c3.65-.57,7-2.06,10.52-3.14,4.42-1.36,8.74-3,13.21-4.26a4.22,4.22,0,0,1,3.43.33l9.21,5.1a6.2,6.2,0,0,1,2.29,2.7c2,3.61,5,5.19,9,6.1,10.08,2.29,20.06,5,30.06,7.68a4.69,4.69,0,0,0,3-.09c5-1.92,10-3.68,15-5.74,3.07-1.29,6.33-1.54,9.47-2.39.73-.19,1.15.24,1.57.79,1.17,1.51,2.46,2.94,3.6,4.47a8.27,8.27,0,0,0,2.49,2.18q13.85,8.28,27.67,16.61,10.58,6.33,21.16,12.62c1.34.79,1.43.8,2.11-.61,1.57-3.23,3.17-6.45,4.56-9.76,1.12-2.65,2.65-5.1,3.56-7.85A3.37,3.37,0,0,1,174.6,235c5.83-2.8,11.55-5.84,17.44-8.53,5.52-2.53,10.89-5.38,16.32-8.12a5.58,5.58,0,0,1,4.07-.63c3.24.74,6.58,1.08,9.87,1.58,1,.12,1.47.88,2,1.56,2.79,3.48,5.56,7,8.37,10.44a4.21,4.21,0,0,1,1,3.52c-1,6.77-2.24,13.51-3.11,20.3a1.53,1.53,0,0,1-.64,1.22c-1.41.14-2.15,1.34-3.11,2.11-6.93,5.65-13.79,11.39-20.68,17.09-3.14,2.59-6.31,5.15-9.45,7.74-.49.4-.95.84-1.52,1.36a59.5,59.5,0,0,0,4.73,6q11.63,14.34,23.33,28.58c2.88,3.53,5.77,7,8.64,10.58,1.16,1.44,1.14,1.47.06,3-1.35,2-2.63,4-4.13,5.88a42,42,0,0,0-6.33,11.47c-1.64,4.25-3.45,8.42-5.14,12.65-.49,1.21-1.13,2.09-2.55,2.11-.15,0-.3.13-.46.14-4.3.14-7.29,2.48-10.15,5.49-4.62,4.87-9.57,9.42-14.35,14.13-3.31,3.25-3.34,3.26-3.84,7.79-.72,6.5-1.37,13-2,19.5a21.81,21.81,0,0,1-2.51,8.88c-2.1,3.67-3.88,7.52-5.76,11.32a2.91,2.91,0,0,1-2.22,1.93,5.88,5.88,0,0,0-2.17,1c-3.1,2-6.23,3.89-9.36,5.82a3.69,3.69,0,0,0-2,2.55q-4.46,22.88-9,45.74c-.49,2.51-1,5-1.42,7.52a2.43,2.43,0,0,1-1.58,2.17,6.11,6.11,0,0,0-2.51,2.16l-20.92,26.52a7.77,7.77,0,0,1-3,2.35c-3.06,1.38-6,2.9-9.13,4.23a2.75,2.75,0,0,0-1.85,2.93c0,6.39-.07,12.79-.11,19.19a25.65,25.65,0,0,0-.14,6.19A3.76,3.76,0,0,1,107,566.4c-6.93,3.45-13.72,7.17-20.59,10.74-17.57,9.13-35.07,18.38-52.64,27.5-1.74.91-1.76,1.65-.58,3,2.6,3,5.23,6,7.86,9,.9,1,1.56,2,.93,3.41-.19,3-.41,6-.56,9.08a7.15,7.15,0,0,1-.81,2.72q-4.38,9.2-8.76,18.38c-3.43,7.21-6.86,14.42-10.36,21.6a2.79,2.79,0,0,0,.16,3.06c5.39,8.87,10.72,17.77,16.07,26.66,1.12,1.87,1.1,1.93-.8,2.79-7.56,3.41-15.12,6.85-22.7,10.24A7.18,7.18,0,0,0,11,717.35c-3.07,4.57-6.24,9.07-9.37,13.61a2.64,2.64,0,0,1-1,1c0-.87-.13-1.75-.13-2.62q0-158.93,0-317.86c0-.88.07-1.75.11-2.63,1.21-.93,2.6-.66,3.93-.53,5,.48,10,.56,15.06.85a10.57,10.57,0,0,1,2.39.09c3.8,1.12,6.8-.26,9.64-2.71a9.3,9.3,0,0,0,3.09-4.41c1.65-5.35,3.56-10.61,5.19-16a8.46,8.46,0,0,0,0-5.38c-2.16-6.36-3.91-12.85-6.1-19.19a14.79,14.79,0,0,1-.39-9.14c3-10.94,5.63-22,8.52-33,.83-3.17.71-3.55-2.42-4.52-8.55-2.64-16.77-6.36-25.64-7.9-3.54-.62-7.1-1.16-10.65-1.72a4.27,4.27,0,0,1-2.59-1.1c0-.8-.11-1.59-.11-2.38q0-43.69,0-87.39C.5,213.71.57,212.92.61,212.12Z"/><path class="cls-4" d="M644.74,521.71l.37.39c0,1,0,2.07,0,3.11q0,159.16,0,318.34,0,30.23,0,60.45c0,.92.35,1.92-.35,2.76,0-1-.08-1.92-.08-2.87,0-17.84,0-35.67,0-53.51a3.89,3.89,0,0,0-2.46-4c-13.32-7-26.84-13.51-40.24-20.3-.36-.19-.72-.36-1.07-.55-1-.52-1.1-1.19-.46-2.13,1.21-1.79,2.34-3.62,3.5-5.44,3.55-5.58,7-11.23,10.7-16.73a7.15,7.15,0,0,0,1-5.46c-.59-3.61-.87-7.25-1.33-10.88-.43-3.39-.89-6.77-1.32-10.16-.08-.63,0-1.28-.12-1.91a12.77,12.77,0,0,0-2-6c-4.71-6.73-9.29-13.55-13.94-20.32-1.09-1.6-1.11-3.46-1.32-5.26a46.21,46.21,0,0,0-.67-5.92,4.34,4.34,0,0,1,.71-3.82,5.24,5.24,0,0,0,.92-3.37c0-1.44,0-2.88,0-4.32.2-10.22.69-20.44.46-30.67-.08-3.42-.6-6.81-.81-10.22-.18-2.94-.72-5.87-.58-8.81a8.26,8.26,0,0,0-2.31-6.06c-1.2-1.39-2.3-2.86-3.41-4.31s-1.19-1.57-.08-3.24q7.89-11.87,15.79-23.72c2.39-3.58,4.87-7.11,7.15-10.76a38.85,38.85,0,0,1,8.32-9.17c3-2.51,5.73-5.32,8.61-8a2.15,2.15,0,0,0,.56-2.55c-2.65-9.35-5.23-18.72-7.8-28.09a4.55,4.55,0,0,0-1.83-2.69c-7.86-5.59-15.68-11.23-23.56-16.8-4.36-3.09-4.4-3.05-5.31-8.28-.06-.32-.06-.64-.12-1-.39-1.94-1.29-4-1-5.81s1.57-3.63,2.5-5.4c2.09-4,4.25-7.86,6.33-11.82,3-5.67,5.87-11.36,8.79-17a10.68,10.68,0,0,0,.41-1.12,7.23,7.23,0,0,1,7.2-.46c9,4.14,17.92,8.62,27,12.64A5,5,0,0,1,644.74,521.71Z"/><path class="cls-1" d="M.61,304.28l15.57,2.46a13.29,13.29,0,0,1,2.32.56q11.36,3.79,22.68,7.64c2.33.8,2.32.87,1.72,3.2Q38.22,336.56,33.51,355a6,6,0,0,0,.06,3.5c2.27,7.14,4.43,14.32,6.74,21.45a10.34,10.34,0,0,1,.06,7.15c-2,5.39-3.62,10.9-5.35,16.37a5.19,5.19,0,0,1-2.17,3,13.68,13.68,0,0,0-2.69,2c-1.88,2-4.19,2.05-6.62,1.73-.56-.08-1.1-.23-1.66-.26L.61,408.88c0-.87-.15-1.75-.15-2.62q0-49.8,0-99.6C.46,305.87.55,305.07.61,304.28Z"/><path class="cls-5" d="M72.14.52c.76.67,1.69.37,2.53.37,9,0,18.07,0,27.41,0C100.22,3,97.9,4,96.1,5.73c-2.84,2.68-6.54,3.18-10,4.17-8.5,2.4-17,4.63-25.58,6.94a3.33,3.33,0,0,0-2.35,1.8c-.79,1.57-2.24,2.67-3.36,4-3,3.55-6.14,6.91-9.25,10.32-1.34,1.48-2.64,3-3.91,4.53a4.82,4.82,0,0,1-3.52,2c-3.8.32-7.55,1-11.36,1.24a4.79,4.79,0,0,1-3.37-1,3.11,3.11,0,0,0-.81-.5c-4.16-1.42-6.72-4.68-9.23-8-1.29-1.71-3.25-2.55-4.88-3.81C5.94,25.52,3.22,23.83.6,22,.47,17.41.41,12.79,0,8.17S2,1.31,6.54.58A22.56,22.56,0,0,1,13.88.31a11.06,11.06,0,0,0,1.91,0h53.5A8.54,8.54,0,0,1,72.14.52Z"/><path class="cls-3" d="M.63,755.43C3.12,758.59,5,761.87,5,766.18c.08,5.63.78,11.26,1.25,16.88.18,2.15-.09,4.31.43,6.43a1.19,1.19,0,0,1-.66,1.4c-1.8,1-3.39,2.38-5.39,3,0-.55-.13-1.11-.13-1.66q0-17.71,0-35.42A13.62,13.62,0,0,1,.63,755.43Z"/><path class="cls-3" d="M436.4,174.18c.12,1.12,1.11,1.29,1.87,1.62,4.17,1.8,8.36,3.56,12.55,5.33l17.85,7.49c.15.07.29.15.44.21,5.49,2.24,5.46,2.25,8.53,7.3,4.67,7.7,9.35,15.4,14.11,23a4.89,4.89,0,0,1,.68,4.69c-.09.22-.18.45-.25.67-1.17,3.67-1.14,3.63,1.84,6,5,4,9.89,8,14.84,12q6.89,5.53,13.8,11a5.67,5.67,0,0,1,2.14,3.57c.67,3.44,1.61,6.81,2.43,10.22.48,2,1.08,4,1.37,6,.52,3.72,3,6.23,5.18,8.93s4.36,5.28,6.54,7.91l.15.19c1.81,2.27,2,2.35,4.81,1.32l37-13.78a7,7,0,0,0,.92-.28c2.32-1.26,4.26-.9,5.82,1.29a4.29,4.29,0,0,0,3.07,1.69c4.17.56,8.35,1,12.52,1.54,2.6.33,5.19.74,7.79,1.1l9.66,1.29c2.76.38,5.5.78,8.25,1.17,2.91.41,5.81.88,8.73,1.18,1.11.12,2.2.31,3.3.48,2.44.38,2.45.34,2.45,2.85V461.54c0,.72,0,1.44-.06,2.16-1.07-.07-1.47-.95-1.84-1.7-3.72-7.42-9.89-12.91-15.17-19.08-5.6-6.56-11.49-12.88-17.13-19.41-1.52-1.75-3-3.51-4.64-5.18-2.49-2.59-4.62-5.29-5.26-8.94-.27-1.57-1.38-1.43-2.59-1.17a69.89,69.89,0,0,1-12.28,1.87c-8.26.29-15.37-2.92-22.57-6.23-8.87-4.07-17.76-8.08-26.72-11.92a8.59,8.59,0,0,0-10,1.93c-9.31,9.13-18,18.86-27.4,27.89a7,7,0,0,1-2.63,2l-.95.07c-.45.29-1,0-1.47.33a16.09,16.09,0,0,0-3.09.36c-.81.25-1.21-.13-1.21-.95,0-.4,0-.8,0-1.2-.05-15.35-.56-30.7-.62-46,0-5.43-.28-10.86-.3-16.3a4.18,4.18,0,0,0-.81-2.45c-2.56-3.66-5.08-7.37-7.68-11-1.93-2.7-4.69-4.57-7.21-6.64a4.12,4.12,0,0,1-1.68-3.44,27.52,27.52,0,0,0-2.77-11.74c-2.93-5.85-5.44-11.91-8.1-17.9a11.05,11.05,0,0,0-2.62-4c-1.75-1.54-2-3.49-1.72-5.67.52-4.83.92-9.68,1.38-14.52.42-4.37.88-8.73,1.3-13.1.37-4,.7-7.94,1.06-11.91.28-3.1.54-6.2.89-9.29.3-2.74.29-2.85-2.12-4.08s-4.7-2.4-7.07-3.55a3.87,3.87,0,0,1-2-2.18c-3.53-8.65-7.14-17.27-10.72-25.91-3.78-9.15-7.51-18.32-11.38-27.44a2.27,2.27,0,0,1,.7-3.06c2.09-1.86,4.13-3.78,6.15-5.71C435.08,175.78,435.71,175,436.4,174.18Z"/><path class="cls-6" d="M400.44,381.06c7.29,3.63,14.71,7,22.12,10.38,3.19,1.46,6.35,3,9.53,4.5,2.1,1,4.18,2,6.32,2.89a4.21,4.21,0,0,1,2.38,2.51c.71,1.78,1.55,3.51,2.14,5.33a9.11,9.11,0,0,0,2.45,3.75c3.58,3.55,7.23,7,10.65,10.73,4.35,4.69,8.85,9.23,13.37,13.75a2.5,2.5,0,0,1,.79,2.72c-1.64,6.8-3.09,13.65-4.64,20.48-1.18,5.2-2.41,10.39-3.58,15.59a10.23,10.23,0,0,0-.13,2.15c0,4,.08,8,0,12a3.16,3.16,0,0,0,1.9,3.18c10.44,6.17,20.91,12.28,31.12,18.83a6.43,6.43,0,0,1,3.07,5c.58,4.17,1.41,8.3,2.06,12.46.31,2.06,1.47,3.69,2.51,5.37,4.25,6.94,8.57,13.83,12.88,20.73a9.18,9.18,0,0,1,1.18,3.12c1.93,9.83,3.88,19.66,5.68,29.51.38,2.11.87,4.2,1.14,6.34.1.8.1,1.36-.76,1.7-3.72,1.44-7.35,3.1-11.17,4.28a6.66,6.66,0,0,1-1.9.13c-3.2,0-6.4.09-9.6,0-9.43-.25-18.84.68-28.27.54a4.58,4.58,0,0,1-4.17-2.12c-2.9-4.1-6-8.09-9-12.06a2.43,2.43,0,0,1-.52-2.36,6.25,6.25,0,0,0-.2-3.31c-2.68-8.77-5.31-17.55-7.95-26.33-1.31-4.35-2.55-8.72-3.9-13.06-.5-1.63.15-3.14.28-4.69.28-3.32.85-6.62,1.29-9.92.61-4.49,1.23-9,1.81-13.46.54-4.18,1-8.36,1.56-12.54,0-.24,0-.48,0-.72.39-2.79.4-2.79-2.27-2.15s-5.09,1.29-7.66,1.82a5.86,5.86,0,0,0-2.9,1.55c-5.28,5-10.54,10-15.91,14.89-4.31,3.93-8.57,7.89-12.83,11.86s-8.62,8.08-13,12c-2.73,2.44-5.16,5.22-8.13,7.42a1.9,1.9,0,0,1-2.33.25c-4.81-2.36-9.72-4.51-14.42-7.06-3.57-1.94-7.27-2.15-11.13-2-1.49.08-2.37,1.27-3.38,2.09-5.74,4.68-11.42,9.45-17.11,14.19q-4.41,3.66-8.81,7.35a6.71,6.71,0,0,0-2.11,3.12c-2.81,8.23-5.69,16.44-8.55,24.65-.37,1-.75,2.1-1.17,3.14a1.92,1.92,0,0,1-2.43,1.32c-4.07-.74-8.15-1.37-12.23-2-2.89-.46-5.72.18-8.55.59-4.88.7-9.74,1.46-14.61,2.2-3.62.55-7.24,1-10.84,1.66a5.39,5.39,0,0,1-2.33-.07q-14-3.52-28.06-6.95a3.17,3.17,0,0,1-2.61-2.6c-2.47-9.07-5.11-18.1-7.71-27.13-.53-1.87-.58-2-2.35-1.85-3.81.28-7.64.27-11.42.85a2.92,2.92,0,0,1-.72.06,80.9,80.9,0,0,0-11.22.61c-5.54.43-11.12.51-16.65,1.26a30.93,30.93,0,0,1-4.31.07c-1,0-1.41-.53-1.53-1.47-.64-5-1.27-10.09-2-15.13s-1.54-10.37-2.27-15.56c-.56-4-1-8.05-1.56-12.06s-1.15-8.18-1.78-12.26c-.33-2.09.06-2.74,2.21-3,4.42-.52,8.85-1,13.27-1.5,3.07-.38,6.13-.84,9.19-1.3a5.07,5.07,0,0,1,2.35.22q11.64,3.68,23.29,7.27a13.17,13.17,0,0,0,4.64,1c.93.62.88,1.67,1.08,2.57,1.83,8.11,4,16.13,5.8,24.25.46,2.11,1.44,2.92,3.6,2.82,13.64-.65,27.35-.1,40.93-1.25,7-.59,13.66.22,20.46.64A4.86,4.86,0,0,0,305,533q6.09-6.78,12.32-13.42a5.25,5.25,0,0,1,4.18-1.86c5.2,0,10.4,0,15.59,0a10.81,10.81,0,0,1,8.52,3.55c3.93,4.31,8.27,8.24,12.29,12.47a7,7,0,0,0,6,2.23,2.24,2.24,0,0,0,2.37-2.14c2-10.92,4.12-21.84,6.16-32.76,1.47-7.85,2.91-15.72,4.44-23.56a6,6,0,0,0-1.46-5.52c-1.62-1.87-3.07-3.89-4.63-5.81-1.38-1.69-1.2-3,.21-4.6,3.75-4.25,7.58-8.43,11.37-12.66,3.36-3.74,6.69-7.52,10.16-11.16a3.59,3.59,0,0,0,.72-4c-1-2.88-1.9-5.77-2.89-8.65a7.74,7.74,0,0,1-.22-4.47c3.09-12.58,6.38-25.1,9.36-37.71A2.75,2.75,0,0,1,400.44,381.06Z"/><path class="cls-6" d="M313,767.52a33.93,33.93,0,0,0,5.34-3.13q12-7.44,23.94-15a3,3,0,0,1,2.67-.38c9.14,2.51,18.3,5,27.45,7.43l.69.2c6,1.77,5.95,1.73,11.48-.94s11.09-5.31,16.69-7.86a12.74,12.74,0,0,0,5.33-4.31c.55-.79,1-1.06,2-.69s1.85.49,2.76.78q16.29,5.25,32.57,10.5c5.93,1.91,11.84,3.83,17.8,5.61a5.55,5.55,0,0,1,3.54,2.89c1.05,2,2.12,3.94,3.19,5.9l12.21,22.53c1.07,2,1.08,2-.32,3.8l-9.51,12.28A3.06,3.06,0,0,1,469,808.3q-9,2.31-18,4.75a9.12,9.12,0,0,1-4.44-.21q-11.19-2.45-22.38-4.91a2.06,2.06,0,0,0-2,.42c-2.39,2.1-4.83,4.15-7.22,6.27-3.39,3-6.8,6-10.29,8.93-3.18,2.65-6.21,5.49-9.31,8.24-1.26,1.11-2.53,2.19-3.79,3.29a3.33,3.33,0,0,1-3.21.4c-2.34-.61-4.78-.07-7.11-.77-1-.29-1.86.33-2.69.82-5.15,3-10.28,6.12-15.44,9.14a7.6,7.6,0,0,0-2.19,2.48c-5.75,7.94-11.43,15.94-17.12,23.92-.19.26-.37.52-.54.79-1,1.64-2.12,2.14-4.28,1.86-2.81-.37-5.7-.56-8.56-.73a68,68,0,0,1-8.78-.78c-1.89-.36-3.82,0-5.73-.31-3.11-.48-5.69-2.09-8.28-3.61a12.68,12.68,0,0,0-7-2c-7.35.15-14.72-.15-22.07.14-7,.28-14.05.39-21.07.39a2.94,2.94,0,0,0-2.32,1c-.88.93-1.88,1.75-2.69,2.74-3.87,4.7-8.48,8.69-12.66,13.1a29.74,29.74,0,0,0-3.53,3.9,2.33,2.33,0,0,1-3.06,1c-3.63-1.21-7.33-2.17-11-3.23a5.58,5.58,0,0,0-3.52.12q-13.65,4.82-27.33,9.57c-4.9,1.71-9.83,3.34-14.72,5.07a2.83,2.83,0,0,1-2.49-.15q-8.53-4.62-17.08-9.2l-9.52-5.08c-1.65-.88-1.75-1.19-1.49-3,.65-4.48,1.22-9,1.84-13.45.76-5.43,1.57-10.85,2.3-16.28.56-4.18,1.06-8.36,1.54-12.55a71.06,71.06,0,0,1,2.86-12.55,10,10,0,0,0,.57-2.8,2.7,2.7,0,0,1,2.3-.27c3.56.52,7.13.94,10.64,1.73,2.18.49,4.32,0,6.44-.19,8.35-.71,16.69-1.46,25-2.14s16.87-1.42,25.3-2.13c4.77-.4,9.55-.73,14.31-1.23,1.28-.13,2.55-.17,3.83-.18a3.4,3.4,0,0,1,3.48,2c.71,1.58,1.8,2,3.49,1.57,17.66-4.52,35.32-9,52.95-13.62a7.49,7.49,0,0,0,3.41-2.13c2.38-2.37,4.67-4.83,7.15-7.09a6.31,6.31,0,0,0,2-6q-1.56-12.72-2.83-25.48C312.68,769.05,312.42,768.24,313,767.52Z"/><path class="cls-7" d="M400.44,381.06c-.91,5.19-2.4,10.25-3.65,15.37q-3,12.44-6.18,24.86a5,5,0,0,0,.11,3c1.09,3.09,2,6.25,3.18,9.3a3.84,3.84,0,0,1-.89,4.53c-7.39,8.08-14.7,16.23-22,24.36-1.14,1.25-1.15,1.28-.06,2.7,2,2.66,4.08,5.34,6.2,7.94a3.25,3.25,0,0,1,.69,2.88q-3,15.64-5.92,31.28-2.55,13.53-5.07,27.06c-.4,2.19-.38,2-2.54,2.27-3.23.38-5.52-.73-7.72-3.13-4.21-4.59-8.79-8.86-13.16-13.3a4.74,4.74,0,0,0-3.32-1.57c-6.55-.43-13.11-.2-19.66-.4a2.69,2.69,0,0,0-2.19,1.2c-4.42,4.84-8.93,9.61-13.28,14.51a4.57,4.57,0,0,1-4.42,1.56c-4.84-.53-9.69-.91-14.54-1.33a4.08,4.08,0,0,0-2.13.11c-2,1.07-4,.82-6.09.86-10.39.2-20.79.33-31.18.62-3,.09-5.9.23-8.86.33a1.74,1.74,0,0,1-2.11-1.61c-2.12-9-4.34-18-6.52-27a11.52,11.52,0,0,1-.16-1.67c4.67-7.17,9.31-14.36,14-21.49a2.73,2.73,0,0,0,.14-3.23c-6.26-11.79-12.45-23.62-18.72-35.41a5.09,5.09,0,0,1-.33-4.68c3.09-8,6.06-16.16,9-24.28a17.85,17.85,0,0,1,3.25-5.25,1.4,1.4,0,0,1,2.07-.35c1.81,1,3.67,1.95,5.51,2.91q30,15.66,59.93,31.35a4.32,4.32,0,0,0,4.39,0c2.9-1.34,4.22-3.35,4.79-6.45,1.12-6.05,2.64-12,4-18,1.61-2.39,4.17-3.67,6.4-5.29,6.19-4.5,12.24-9.21,18.44-13.7,2.83-2.05,4.39-5.25,6.41-8,6.42-8.75,12.9-17.46,19-26.41,1.66-2.44,3.8-1.77,5.84-2.23,4.39-.11,8.79-.17,13.18-.37,1.3-.06,1.85.72,2.5,1.53Z"/><path class="cls-8" d="M229.94,256.35c.11-4.37,1.15-8.63,1.74-12.94.44-3.21,1-6.4,1.58-9.6.13-.74-.31-1.17-.71-1.67q-5.13-6.4-10.25-12.83a36.3,36.3,0,0,1,2.52-6.7c3.14-6.88,6.35-13.73,9.53-20.6,1.81-3.18,4.65-5.47,7.3-7.82,5-4.47,9.58-9.41,14.41-14.06a18.25,18.25,0,0,1,3.32-2.75c3.77-1.52,7.84-1.31,11.76-2,2.59-.43,5.21-.77,7.84-1a2.5,2.5,0,0,0,2.5-2.37c.56-2.74,1-5.5,1.53-8.25a5.41,5.41,0,0,1,2.83-3.91c12.27-7,24.6-13.94,36.84-21a4.24,4.24,0,0,1,3.87-.35c10.95,4,21.93,7.93,32.86,12a3.37,3.37,0,0,1,2.13,1.43c.42,2.49,2.32,3.59,4.32,4.56a3.89,3.89,0,0,1,2.29,2.15q3.64,19.28,7.3,38.55,2.82,14.92,5.61,29.85c.1.55.16,1.11.24,1.66.59,1.79-.65,2-1.91,2.21-6.09.91-12.22,1.51-18.31,2.37-5.07.72-10.15,1.28-15.23,1.93a6.15,6.15,0,0,0-2.73.81c-3.18,2.16-6.22,4.5-9.23,6.89a4,4,0,0,0-1.39,2.94c-.59,6-.62,12-.87,18-.2,4.86-.74,9.72-.6,14.6a3.51,3.51,0,0,1-1,2.82l-18,35.88a1.44,1.44,0,0,1-1.23,1c-6.61,1.41-12.84,4.08-19.35,5.86a3.83,3.83,0,0,1-3-.1c-4.47-.09-8.88-.86-13.32-1.23a6.18,6.18,0,0,0-1.18-.16c-2.79.27-4.41-1.11-6-3.34-12.27-17.21-24.69-34.31-37.05-51.45C230.56,257.28,230.25,256.81,229.94,256.35Z"/><path class="cls-7" d="M313,767.52c.8,3.91,1,7.91,1.47,11.86.67,5.3,1.22,10.61,1.82,15.92.09.79.07,1.6.19,2.39a2.85,2.85,0,0,1-1,2.54q-4.77,4.72-9.47,9.51a5.48,5.48,0,0,1-2.68,1.46Q276.66,818,250,824.89c-.54.13-1.1.21-1.63.39a1.11,1.11,0,0,1-1.55-.67,2.92,2.92,0,0,1-.22-.43c-.72-2.82-2.63-3.25-5.25-3-6.66.72-13.34,1.23-20,1.81-4.37.38-8.74.71-13.12,1.08-5.08.43-10.16.89-15.25,1.32l-12.88,1.06-9.53.83a4.29,4.29,0,0,1-1.43,0c-4.57-1.17-9.3-1.41-13.9-2.36-2.35-1.87-2.5-4-1.64-6.89,3.34-11.2,6.38-22.49,9.53-33.74.12-.46.19-.94.29-1.4a7.36,7.36,0,0,1,1.25-3.3c3.25-4.92,6.31-10,9.63-14.86a6.64,6.64,0,0,0,1-5.42q-2.66-12.9-5.15-25.81c-.22-1.14-1.06-2.48.4-3.48,2-1.13,4.08-2.16,6-3.42a5.81,5.81,0,0,1,4.31-.75,51.65,51.65,0,0,0,7.34.8,8.64,8.64,0,0,0,3.65.11c2.06.58,3.18-.26,4.09-2.18,2-4.17,3.67-8.49,6.22-12.38,1.46-2.54,2.91-5.09,4.36-7.63,1.17-2.16,2.22-4.39,4-6.11,3.67-4.59,6.87-9.53,10.39-14.23a17.11,17.11,0,0,1,2.22-2.79.52.52,0,0,1,.62,0l0,.07c.32.25.74.2,1.1.35L241.34,687a3,3,0,0,1,1.81,1.43c1.36,2.26,2.77,4.49,4.21,6.7a3.41,3.41,0,0,1,.52,2.49c-.78,5.69-1.5,11.39-2.25,17.09-.86,6.49-1.74,13-2.6,19.46a6.71,6.71,0,0,0,.3,3.07c1.83,5.44,3.6,10.91,5.4,16.37.61,1.85.63,1.87,2.7,1.81,9.51-.27,19-.54,28.52-.88a12.39,12.39,0,0,1,5.56,1.08C294.65,759.64,303.82,763.57,313,767.52Z"/><path class="cls-9" d="M496.43,423.79a8.18,8.18,0,0,1,1.75-2c5-5.05,10.19-9.94,15-15.18,4.55-4.95,9.44-9.55,14-14.43A5.12,5.12,0,0,1,531,390.6a17.07,17.07,0,0,1,8.29,1.81c6.82,3.12,13.66,6.19,20.5,9.27l14.2,6.37a8.33,8.33,0,0,0,3.93.86c3.28-.19,6.5.64,9.79.52a25.45,25.45,0,0,0,5.44-.66c2-.5,4.06-.83,6-1.42,1.3-.39,1.68,0,1.93,1.24.54,2.58,1.21,5.13,3.16,7.1,1.29,1.3,2.49,2.69,3.68,4.08,3,3.52,6.19,6.87,9.26,10.34,4.38,4.95,8.7,10,13.09,14.91,2.43,2.74,4.79,5.56,7.32,8.2,2.27,2.36,3.7,5.18,5.39,7.88.55.87,1.12,1.73,1.69,2.6,0,.88.09,1.76.09,2.64q0,27,0,53.94c0,.48,0,1,0,1.43-1.26-.47-2.55-.87-3.77-1.44-4.18-2-8.33-4-12.5-6-4.61-2.18-9.24-4.31-13.85-6.47a2.87,2.87,0,0,0-1.82-.24,19,19,0,0,1-4,.68,66.24,66.24,0,0,0-5.24-6.81c-3.44-4.38-7.18-8.54-10.4-13.08-1.85-2.61-4.16-3.38-7-3.64-5.14-.46-10.27-1.08-15.38-1.81-3.22-.45-6.47-.7-9.71-1.08-3.39-.4-6.77-.85-10.16-1.26-.87-.11-1.75-.1-2.62-.2-1.56-.19-1.84-.55-2-2.13-.21-2.93-.58-5.86-.52-8.82a7.93,7.93,0,0,0-1.84-5.05c-4.9-6.48-9.81-12.94-14.57-19.52a72,72,0,0,1-4.67-7.79,5,5,0,0,0-2.56-2.35q-8.38-3.51-16.74-7.08C502.43,426.38,499.43,425.08,496.43,423.79Z"/><path class="cls-4" d="M41.93,620.1a4,4,0,0,0-1.12-2.77c-3.13-3.5-6.15-7.11-9.26-10.63-.74-.84-.65-1.28.33-1.78,2.48-1.27,4.92-2.63,7.4-3.91,5.67-2.94,11.36-5.83,17-8.79q15.39-8,30.75-16.09c6.5-3.41,13-6.9,19.52-10.18a4,4,0,0,0,2.56-4.28c-.07-1.79-.47-3.66.35-5.41,0,2,.1,4,0,6a14.34,14.34,0,0,0,.94,5.61c4.79,13,9.53,26,14.32,39.06,1.54,4.19,1.56,4.16-.31,8.33-1.14,2.54-2.28,5.09-3.29,7.7a4.67,4.67,0,0,1-2.11,2.47c-4.46,2.64-8.93,5.25-13.34,8a3.85,3.85,0,0,1-3.18.47L52,621.33c-2.62-.65-5.26-1.28-7.86-2A1.78,1.78,0,0,0,41.93,620.1Z"/><path class="cls-3" d="M373.08,365.29c-.29.12-.61.38-.86.33-2.26-.44-3.48.88-4.65,2.51-5.51,7.7-11.07,15.37-16.61,23.05-2.14,3-4.29,5.93-6.41,8.91-1.47,2.08-3.72,3.23-5.67,4.71C332.09,410,325.24,415,318.4,420.07a16,16,0,0,1-1.44.85c-2.15-3.37-3.87-7-5.84-10.46-.75-4.71.28-9.38.49-14.06.25-5.58.81-11.13,1.18-16.7.54-8.19,1.18-16.38,1.74-24.57.38-5.57.8-11.14,1.16-16.71.48-7.48,1.08-14.95,1.58-22.43a4.33,4.33,0,0,1,1.08-3.09,61.34,61.34,0,0,1,7.31,3.51,6.82,6.82,0,0,1,1.76,1.6q7.9,8.82,15.78,17.65Q354.09,347.9,365,360.15c1.22,1.37,2.46,2.72,3.66,4.11a2.38,2.38,0,0,0,2.07.94C371.48,365.16,372.28,365.25,373.08,365.29Z"/><path class="cls-3" d="M330,271.28a7.34,7.34,0,0,0,.32-1.63c-.11-3.68.47-7.33.47-11,0-5.75.67-11.47.63-17.22,0-2.12.44-4.27.37-6.43a2.35,2.35,0,0,1,1-2.06q5.14-3.9,10.31-7.76a3.64,3.64,0,0,1,1.81-.59c6.16-.65,12.31-1.45,18.44-2.34,5.51-.79,11.05-1.38,16.58-2,1.09-.12,1.31-.67,1.39-1.53.49.58.49,1.49,1.44,1.78s1.26,1.2,1.78,1.89c4.25,5.49,8.43,11,12.72,16.5a4.34,4.34,0,0,1,.83,4.37c-2.29,7.72-4.42,15.49-6.63,23.23-.64,2.24-.67,2.18-2.88,2.3-9.09.5-18.19.66-27.28,1-4.54.19-9.11,0-13.63.47C341.76,270.89,335.82,270.19,330,271.28Z"/><path class="cls-7" d="M318.35,312.9c-.47,5.62-1,11.25-1.39,16.88-.16,2.22-.37,4.45-.43,6.66-.09,3.52-.41,7-.68,10.5-.43,5.39-.56,10.8-1.25,16.17-.31,2.37-.33,4.78-.44,7.15-.18,3.5-.54,7-.69,10.5-.23,5.47-1,10.93-1.24,16.41-.15,3.42-.68,6.82-.62,10.26a5.94,5.94,0,0,1-.49,3c-5.58-5-10.86-10.36-16.27-15.56-5.64-5.43-11.23-10.9-16.9-16.3a2.89,2.89,0,0,1-1-3.08c2.74-13.52,5.36-27.07,8-40.6q1.86-9.51,3.73-19c.14-.7.48-1.4-.23-2,2.89-.23,5.53-1.44,8.28-2.23,4-1.14,7.9-2.43,11.82-3.77,1.14-.39,2.43,0,3.47-.75,1.69,2,4,3.43,5.85,5.28l.49.46Z"/><path class="cls-6" d="M170.55,730.06c-.5.86-.12,1.74,0,2.57,1.78,9.08,3.58,18.16,5.46,27.22a5.75,5.75,0,0,1-.88,4.72c-3.55,5.32-7,10.73-10.43,16.11-.47.73-.9,1.5-1.34,2.25a3.39,3.39,0,0,0-1.25-2c-7.24-7.1-14-14.71-21.28-21.77-2.58-2.5-5.2-5-7.61-7.65-6.31-7-13.24-13.42-19.75-20.25-1.47-1.55-2.83-3.23-4.36-4.75a1.32,1.32,0,0,1,0-2.09,8.08,8.08,0,0,1,4.35-2.72c4-.82,7.89-1.92,11.81-3a6.51,6.51,0,0,1,3.53,0q10.57,3,21.16,5.94c5.91,1.65,11.83,3.27,17.72,5A11.84,11.84,0,0,0,170.55,730.06Z"/><path class="cls-10" d="M210.81,698.82c-1.59,1.81-2.48,4.13-4.29,5.79-.12-.71.49-1.23.49-1.9,3.23-6.83,6.89-13.44,10.42-20.11.5-1,.73-2.17,2-2.47a2,2,0,0,0,.42,0c.29.24.71.16,1,.39s.76.13,1,.52c.41,1-.17,1.71-.65,2.4C217.74,688.56,214.31,693.71,210.81,698.82Z"/><path class="cls-11" d="M219.47,680.13c-1.05,1.93-2.12,3.86-3.15,5.8q-4.09,7.65-8.16,15.31a3,3,0,0,1-1.15,1.47,45.37,45.37,0,0,1,2.89-7.26c2-4.79,4.25-9.51,6.37-14.27C217.19,679.1,217.17,679.09,219.47,680.13Z"/><path class="cls-12" d="M210.81,698.82a14.31,14.31,0,0,1,2.06-3.73c2.59-3.91,5-7.93,7.77-11.72a16.58,16.58,0,0,0,1.23-2.32,1.8,1.8,0,0,1,.46.05c.26.32.85,0,1,.54a55.43,55.43,0,0,1-4,5.85c-2.36,3.37-4.78,6.7-7.17,10A3.25,3.25,0,0,1,210.81,698.82Z"/><path class="cls-13" d="M202.16,712.24c-.39,2.06-1.62,3.77-2.4,5.67-1.07,2.64-2.38,5.19-3.63,7.75-1.08,2.22-1.39,2.31-4.09,1.55,3.12-4.36,5.69-9.08,8.73-13.5C201.34,713.32,201.42,712.47,202.16,712.24Z"/><path class="cls-14" d="M200.77,713.71c-.71,2.4-2.42,4.25-3.53,6.43-.93,1.83-2.1,3.53-3.1,5.33a2.93,2.93,0,0,1-2.1,1.74c-1.28-.14-2.63.15-3.84-.52,2.51.49,3.89-.84,5.15-2.83,2.09-3.28,4.42-6.41,6.67-9.58A3.37,3.37,0,0,1,200.77,713.71Z"/><path class="cls-9" d="M494,424.19a1.44,1.44,0,0,1,1.47-.33A1.44,1.44,0,0,1,494,424.19Z"/><path class="cls-10" d="M223.35,681.64a1.68,1.68,0,0,1-1-.54,1.4,1.4,0,0,1,1.46.42A1.11,1.11,0,0,1,223.35,681.64Z"/><path class="cls-11" d="M220.9,680.53a1,1,0,0,1-1-.39A1,1,0,0,1,220.9,680.53Z"/><path class="cls-12" d="M224.87,681.94a1,1,0,0,1-1.1-.35A1,1,0,0,1,224.87,681.94Z"/><path class="cls-3" d="M318.35,312.9a.56.56,0,0,1-.49-.46A.52.52,0,0,1,318.35,312.9Z"/><path class="cls-3" d="M361.54,142,333,131.61c-2.32-.85-4.67-1.62-6.95-2.57a2.72,2.72,0,0,0-2.69.18Q304.67,139.9,286,150.55a3.92,3.92,0,0,0-2.26,3.1c-.46,3.22-1.27,6.39-1.79,9.6A1.86,1.86,0,0,1,280,165c-4.34.51-8.7.89-13,1.54-2.57.39-5.26.21-7.7,1.4-11.09-10.37-22.4-20.52-33.6-30.77,1.59-1.58,2-3.78,2.76-5.74,2.77-6.87,5.39-13.81,8.08-20.71,1.21-3.12,2.43-6.24,3.69-9.34.71-1.72,1-1.86,2.65-1.54,2.57.5,5.13,1.07,7.71,1.58l16.13,3.1a4.59,4.59,0,0,0,3.2-.72q9-5.07,17.91-10.12c3.27-1.84,6.54-3.66,9.86-5.41a8,8,0,0,0,3.37-3,3.91,3.91,0,0,1,3.55-1.93c3.23-.24,6.45-.83,9.67-1.24,3.07-.39,6.15-.73,9.22-1.11,3.31-.41,6.61-.86,9.92-1.27,3.15-.39,6.3-.74,9.45-1.13s6.46-.83,9.68-1.25c1.73-.22,3.46-.45,5.2-.66A6,6,0,0,1,362.24,78c2.38,1.74,4.87,3.34,7.37,4.91a2,2,0,0,1,1,2.2c-.81,5.09-1.65,10.19-2.47,15.28-.77,4.78-1.52,9.56-2.29,14.33-.53,3.29-1.1,6.58-1.62,9.87-.75,4.78-1.5,9.56-2.22,14.35A9.87,9.87,0,0,0,361.54,142Z"/><path class="cls-5" d="M270.66,20.43a44,44,0,0,1-5.72,4.7c-3,2.36-6.12,4.58-9.15,6.9a3.17,3.17,0,0,1-3.29.65c-3.09-1.06-6.24-1.91-9.36-2.88-7.31-2.26-14.62-4.49-21.9-6.83a2.78,2.78,0,0,0-3.19.65c-3.7,3.38-7.53,6.62-11.29,9.94-3.17,2.8-6.27,5.66-9.46,8.43-1.5,1.31-3.06,2.55-4.46,4a2.37,2.37,0,0,1-2.4.59c-3.57-.78-7.16-1.47-10.74-2.19-1.32-.26-2.65-.54-4-.76a2.79,2.79,0,0,1-2.2-1.61c-2.49-4.73-5-9.44-7.54-14.16-1.17-2.18-2.37-4.34-3.5-6.54a4.38,4.38,0,0,0-2-1.92c-5-2.55-9.91-5.18-14.92-7.65a7.65,7.65,0,0,1-3.62-3.32c-1.27-2.38-2.52-4.76-3.77-7.13.68-.59,1.34-.37,1.94-.37q54.09,0,108.17,0A4.72,4.72,0,0,1,252,2.46c4.56,4.82,9.72,9,14.32,13.8C267.68,17.67,269.48,18.65,270.66,20.43Z"/><path class="cls-5" d="M525.28,50.58,494.59,1.05h71c.15.82-.65,1.14-1.09,1.59-4.66,4.7-9.72,9-14.29,13.8-1.13,1.18-2.22,2.25-2,4.1a3.41,3.41,0,0,1-1.05,2.34c-5.5,7.22-10.95,14.47-16.49,21.65-1.16,1.51-2.35,3-3.51,4.52A3.33,3.33,0,0,1,525.28,50.58Z"/><path class="cls-1" d="M225.72,137.19c1.25,0,2,.95,2.78,1.7q9.85,9,19.71,18.12c3.23,3,6.5,5.89,9.73,8.85.62.57,1.48,1,1.38,2.1L236.11,190.4c-.57.55-1.17,1.07-1.76,1.61a5.47,5.47,0,0,1-1.23-2q-10.35-20.67-20.66-41.33c-.08-.14-.14-.29-.22-.43-.85-1.69-1.35-1.71.94-3.11,3.06-1.88,6.09-3.79,9.13-5.71C223.46,138.69,224.58,137.93,225.72,137.19Z"/></g></g></svg>